<svg width="26" height="20" viewBox="0 0 26 20" fill="none" xmlns="http://www.w3.org/2000/svg">
<path id="Vector" fill-rule="evenodd" clip-rule="evenodd" d="M12.6035 2.70831C11.6282 2.70831 11.0005 3.39898 11.0005 4.06165C11.0005 4.29371 10.9083 4.51627 10.7442 4.68036C10.5801 4.84446 10.3576 4.93665 10.1255 4.93665C9.89342 4.93665 9.67087 4.84446 9.50677 4.68036C9.34268 4.51627 9.25049 4.29371 9.25049 4.06165C9.25049 2.26148 10.8418 0.958313 12.6035 0.958313C14.3652 0.958313 15.9565 2.26148 15.9565 4.06165C15.9565 4.85498 15.6672 5.59465 15.1515 6.15465C14.9882 6.33315 14.8085 6.51048 14.644 6.67381L14.5577 6.75781C14.3786 6.93095 14.207 7.11155 14.0432 7.29915C13.9559 7.39983 13.8759 7.50666 13.804 7.61881C14.4774 7.74513 15.118 8.00711 15.687 8.38881L24.3588 14.2338C25.4672 14.9805 25.767 16.2136 25.382 17.2531C25.0028 18.2751 23.9925 19.0416 22.68 19.0416H3.31916C2.02182 19.0416 1.01616 18.2891 0.628823 17.28C0.23449 16.2533 0.512156 15.0271 1.59482 14.2665L9.87232 8.44248C10.4907 8.01076 11.1979 7.72295 11.942 7.60015C12.0645 7.00865 12.4005 6.52915 12.7097 6.16515C12.9103 5.92948 13.1297 5.70898 13.3268 5.51415L13.4202 5.42081C13.587 5.25748 13.7317 5.11398 13.8635 4.97048C14.0758 4.73948 14.2065 4.42448 14.2065 4.06048C14.2065 3.39898 13.5788 2.70831 12.6035 2.70831ZM14.7093 9.83898C14.1374 9.46057 13.4642 9.2645 12.7785 9.27665C12.0997 9.28002 11.4377 9.48821 10.8792 9.87398L2.60166 15.6968C2.19799 15.9803 2.14549 16.3478 2.26332 16.6523C2.38582 16.9731 2.73349 17.2916 3.31916 17.2916H22.68C23.2738 17.2916 23.6203 16.9685 23.7417 16.6441C23.8548 16.3361 23.7965 15.9651 23.38 15.6851L14.7093 9.83898Z" fill="#ADAAAF"/>
</svg>
