<svg width="24" height="22" viewBox="0 0 24 22" fill="none" xmlns="http://www.w3.org/2000/svg">
<path id="Vector" d="M12.0001 21.5C11.6489 21.4996 11.3059 21.3934 11.0157 21.1954C6.71785 18.2778 4.85684 16.2773 3.83035 15.0266C1.64285 12.3606 0.595588 9.62352 0.625119 6.65945C0.659572 3.26281 3.38465 0.5 6.69981 0.5C9.11043 0.5 10.78 1.85789 11.7524 2.98883C11.7832 3.02429 11.8212 3.05273 11.864 3.07222C11.9067 3.09171 11.9531 3.10179 12.0001 3.10179C12.0471 3.10179 12.0935 3.09171 12.1363 3.07222C12.179 3.05273 12.2171 3.02429 12.2479 2.98883C13.2202 1.8568 14.8898 0.5 17.3004 0.5C20.6156 0.5 23.3407 3.26281 23.3751 6.66C23.4046 9.62461 22.3563 12.3617 20.1699 15.0272C19.1434 16.2779 17.2824 18.2784 12.9845 21.1959C12.6943 21.3938 12.3513 21.4997 12.0001 21.5Z" fill="#ADAAAF"/>
</svg>
