<svg width="25" height="25" viewBox="0 0 25 25" fill="none" xmlns="http://www.w3.org/2000/svg">
<path id="Vector" d="M14.0998 0.400024C13.5429 0.400024 13.0087 0.621274 12.6149 1.0151C12.2211 1.40893 11.9998 1.94307 11.9998 2.50002V9.50002C11.9998 10.057 12.2211 10.5911 12.6149 10.9849C13.0087 11.3788 13.5429 11.6 14.0998 11.6H22.4998C23.0568 11.6 23.5909 11.3788 23.9847 10.9849C24.3786 10.5911 24.5998 10.057 24.5998 9.50002V2.50002C24.5998 1.94307 24.3786 1.40893 23.9847 1.0151C23.5909 0.621274 23.0568 0.400024 22.4998 0.400024H14.0998ZM15.4998 7.40002H21.0998C21.2855 7.40002 21.4635 7.47377 21.5948 7.60505C21.7261 7.73633 21.7998 7.91437 21.7998 8.10002C21.7998 8.28568 21.7261 8.46372 21.5948 8.595C21.4635 8.72627 21.2855 8.80002 21.0998 8.80002H15.4998C15.3142 8.80002 15.1361 8.72627 15.0048 8.595C14.8736 8.46372 14.7998 8.28568 14.7998 8.10002C14.7998 7.91437 14.8736 7.73633 15.0048 7.60505C15.1361 7.47377 15.3142 7.40002 15.4998 7.40002ZM14.7998 3.90002C14.7998 3.71437 14.8736 3.53633 15.0048 3.40505C15.1361 3.27377 15.3142 3.20002 15.4998 3.20002H21.0998C21.2855 3.20002 21.4635 3.27377 21.5948 3.40505C21.7261 3.53633 21.7998 3.71437 21.7998 3.90002C21.7998 4.08568 21.7261 4.26372 21.5948 4.395C21.4635 4.52627 21.2855 4.60002 21.0998 4.60002H15.4998C15.3142 4.60002 15.1361 4.52627 15.0048 4.395C14.8736 4.26372 14.7998 4.08568 14.7998 3.90002ZM4.4398 3.20002H10.5998V9.50002C10.5998 10.4283 10.9686 11.3185 11.6249 11.9749C12.2813 12.6313 13.1715 13 14.0998 13H22.4998C22.7392 13 22.973 12.9762 23.1998 12.93V16.1864C23.1998 18.1716 21.5702 19.7788 19.5598 19.7788H13.1338L7.5184 23.9242C7.22037 24.1439 6.848 24.2378 6.48144 24.1857C6.11487 24.1336 5.78341 23.9397 5.55841 23.6456C5.37803 23.408 5.2802 23.118 5.2798 22.8196V19.7788H4.4398C2.4294 19.7788 0.799805 18.1702 0.799805 16.1864V6.79242C0.799805 4.80862 2.4294 3.20002 4.4398 3.20002Z" fill="#ADAAAF"/>
</svg>
