<svg width="25" height="71" viewBox="0 0 25 71" fill="none" xmlns="http://www.w3.org/2000/svg">
<path d="M12.5 0C14.3944 0 16.2112 0.748033 17.5508 2.07954C18.8903 3.41105 19.6429 5.21696 19.6429 7.1C19.6429 8.98304 18.8903 10.7889 17.5508 12.1205C16.2112 13.452 14.3944 14.2 12.5 14.2C10.6056 14.2 8.78878 13.452 7.44924 12.1205C6.10969 10.7889 5.35714 8.98304 5.35714 7.1C5.35714 5.21696 6.10969 3.41105 7.44924 2.07954C8.78878 0.748033 10.6056 0 12.5 0ZM7.14286 17.75H17.8571C19.7515 17.75 21.5684 18.498 22.9079 19.8295C24.2474 21.161 25 22.967 25 24.85V44.375H19.6429V71H12.5H5.35714V44.375H0V24.85C0 22.967 0.75255 21.161 2.0921 19.8295C3.43164 18.498 5.24845 17.75 7.14286 17.75Z" fill="#DCD9DD"/>
</svg>
