<svg width="25" height="72" viewBox="0 0 25 72" fill="none" xmlns="http://www.w3.org/2000/svg">
<path d="M12.5 3.80589e-06C14.3944 3.80589e-06 16.2112 0.758573 17.5508 2.10883C18.8903 3.4591 19.6429 5.29045 19.6429 7.2C19.6429 9.10956 18.8903 10.9409 17.5508 12.2912C16.2112 13.6414 14.3944 14.4 12.5 14.4C10.6056 14.4 8.78878 13.6414 7.44924 12.2912C6.10969 10.9409 5.35714 9.10956 5.35714 7.2C5.35714 5.29045 6.10969 3.4591 7.44924 2.10883C8.78878 0.758573 10.6056 3.80589e-06 12.5 3.80589e-06ZM7.14286 18C7.14286 18 10.254 20.1088 12.5 20.1088C14.746 20.1088 17.8571 18 17.8571 18C19.7515 18 21.5684 18.7586 22.9079 20.1088C24.2474 21.4591 25 23.2904 25 25.2V45H20.5873L25 72H12.5L0 72L3.76114 45H0V25.2C0 23.2904 0.75255 21.4591 2.0921 20.1088C3.43164 18.7586 5.24845 18 7.14286 18Z" fill="#DCD9DD"/>
</svg>
