<svg width="25" height="73" viewBox="0 0 25 73" fill="none" xmlns="http://www.w3.org/2000/svg">
<path d="M12.5 0C14.3944 0 16.2112 0.769105 17.5508 2.13812C18.8903 3.50713 19.6429 5.36392 19.6429 7.3C19.6429 9.23608 18.8903 11.0929 17.5508 12.4619C16.2112 13.8309 14.3944 14.6 12.5 14.6C10.6056 14.6 8.78878 13.8309 7.44924 12.4619C6.10969 11.0929 5.35714 9.23608 5.35714 7.3C5.35714 5.36392 6.10969 3.50713 7.44924 2.13812C8.78878 0.769105 10.6056 0 12.5 0ZM6.49126 17.2806C9.30386 16.1679 10.5205 16.3702 12.5 16.3702C13.6068 16.3702 14.7976 16.5521 15.7763 16.7532C17.1888 17.0435 18.6172 17.3736 19.8837 18.0629C21.0068 18.6742 22.0625 19.5242 22.9079 20.3881C24.2474 21.7571 25 23.6139 25 25.55V42.9464C25 44.4258 23.8008 45.625 22.3214 45.625C20.8421 45.625 19.6429 46.8242 19.6429 48.3036V65.8571C19.6429 69.802 16.4449 73 12.5 73C8.55511 73 5.35714 69.802 5.35714 65.8571V48.3036C5.35714 46.8242 4.15791 45.625 2.67857 45.625C1.19924 45.625 0 44.4258 0 42.9464V25.55C0 23.6139 0.75255 21.7571 2.0921 20.3881C3.43164 19.0191 3.67866 18.3933 6.49126 17.2806Z" fill="#DCD9DD"/>
</svg>
