<svg width="30" height="27" viewBox="0 0 30 27" fill="none" xmlns="http://www.w3.org/2000/svg">
<path d="M7.5 3.5H7.70711L7.85355 3.35355L10.7071 0.5H19.2929L22.1464 3.35355L22.2929 3.5H22.5H27C27.663 3.5 28.2989 3.76339 28.7678 4.23223C29.2366 4.70107 29.5 5.33696 29.5 6V24C29.5 24.663 29.2366 25.2989 28.7678 25.7678C28.2989 26.2366 27.663 26.5 27 26.5H3C2.33696 26.5 1.70107 26.2366 1.23223 25.7678C0.763392 25.2989 0.5 24.663 0.5 24V6C0.5 5.33696 0.763392 4.70107 1.23223 4.23223C1.70107 3.76339 2.33696 3.5 3 3.5H7.5ZM15 7C12.8783 7 10.8434 7.84285 9.34315 9.34315C7.84285 10.8434 7 12.8783 7 15C7 17.1217 7.84285 19.1566 9.34315 20.6569C10.8434 22.1571 12.8783 23 15 23C17.1217 23 19.1566 22.1571 20.6569 20.6569C22.1571 19.1566 23 17.1217 23 15C23 12.8783 22.1571 10.8434 20.6569 9.34315C19.1566 7.84285 17.1217 7 15 7ZM15 11C16.0609 11 17.0783 11.4214 17.8284 12.1716C18.5786 12.9217 19 13.9391 19 15C19 16.0609 18.5786 17.0783 17.8284 17.8284C17.0783 18.5786 16.0609 19 15 19C13.9391 19 12.9217 18.5786 12.1716 17.8284C11.4214 17.0783 11 16.0609 11 15C11 13.9391 11.4214 12.9217 12.1716 12.1716C12.9217 11.4214 13.9391 11 15 11Z" fill="#100069" stroke="white"/>
</svg>
