<svg width="125" height="126" viewBox="0 0 125 126" fill="none" xmlns="http://www.w3.org/2000/svg">
<g clip-path="url(#clip0_365_907)">
<path d="M120.216 0H4.788C2.14366 0 0 2.15006 0 4.80229V73.2808C0 75.8176 1.97731 77.9072 4.46636 78.0684C4.57237 78.0795 4.67838 78.0831 4.788 78.0831H33.5221V77.3499H4.788C4.67838 77.3499 4.57237 77.3463 4.46637 77.3353C2.37939 77.1703 0.730998 75.4144 0.730998 73.2808V4.79862C0.730994 2.55334 2.54574 0.733175 4.78435 0.733175H120.216C122.454 0.733175 124.269 2.55335 124.269 4.79866V56.9017C124.269 68.195 115.141 77.3499 103.882 77.3499L103.882 78.0831H120.216C122.858 78.0831 125 75.9347 125 73.2845V4.79862C125 2.14841 122.858 0 120.216 0Z" fill="#C8C5D0"/>
<path d="M97.6333 17.4713H73.1139C72.2728 17.4713 71.5884 16.7849 71.5884 15.9412C71.5884 15.0975 72.2728 14.4111 73.1139 14.4111H97.6333C98.4745 14.4111 99.1588 15.0975 99.1588 15.9412C99.1588 16.7849 98.4745 17.4713 97.6333 17.4713Z" fill="#F2F2F2"/>
<path d="M33.3058 22.6035H8.78642C7.94526 22.6035 7.26086 21.9171 7.26086 21.0734C7.26086 20.2298 7.94525 19.5433 8.78642 19.5433H33.3058C34.1469 19.5433 34.8313 20.2298 34.8313 21.0734C34.8313 21.9171 34.1469 22.6035 33.3058 22.6035Z" fill="#F2F2F2"/>
<path d="M116.768 22.6501H73.1139C72.2728 22.6501 71.5884 21.9637 71.5884 21.12C71.5884 20.2764 72.2728 19.5899 73.1139 19.5899H116.768C117.609 19.5899 118.294 20.2764 118.294 21.12C118.294 21.9637 117.609 22.6501 116.768 22.6501Z" fill="#F2F2F2"/>
<path d="M33.1566 121.953V35.4676C33.1566 33.236 34.9666 31.4204 37.1917 31.4204H100.028C102.253 31.4204 104.063 33.236 104.063 35.4676V110.589C104.063 112.82 102.253 114.636 100.028 114.636L37.1917 126C34.9666 126 33.1566 124.184 33.1566 121.953ZM103.332 35.4676C103.332 33.6373 101.853 32.1536 100.028 32.1536H37.1917C35.3669 32.1536 33.8876 33.6373 33.8876 35.4676V121.953C33.8876 123.783 35.3669 125.267 37.1917 125.267C37.1917 125.267 103.332 99.8349 103.332 82.4815V35.4676Z" fill="#C8C5D0"/>
<path d="M114.978 108.523C112.084 108.523 109.729 106.161 109.729 103.257C109.729 100.354 112.084 97.9919 114.978 97.9919C117.873 97.9919 120.228 100.354 120.228 103.257C120.228 106.161 117.873 108.523 114.978 108.523ZM114.978 98.7251C112.487 98.7251 110.46 100.758 110.46 103.257C110.46 105.756 112.487 107.79 114.978 107.79C117.47 107.79 119.497 105.756 119.497 103.257C119.497 100.758 117.47 98.7251 114.978 98.7251Z" fill="#C8C5D0"/>
<path d="M113.926 105.684C113.827 105.684 113.727 105.644 113.655 105.564C113.52 105.414 113.531 105.182 113.681 105.046L115.709 103.204L113.873 101.17C113.737 101.02 113.749 100.788 113.899 100.652C114.048 100.516 114.28 100.528 114.415 100.678L116.496 102.984C116.632 103.134 116.62 103.366 116.47 103.502L114.171 105.589C114.102 105.653 114.014 105.684 113.926 105.684Z" fill="#C8C5D0"/>
<path d="M22.0426 108.523C19.1478 108.523 16.7927 106.161 16.7927 103.257C16.7927 100.354 19.1478 97.9919 22.0426 97.9919C24.9373 97.9919 27.2924 100.354 27.2924 103.257C27.2924 106.161 24.9373 108.523 22.0426 108.523ZM22.0426 98.7251C19.5509 98.7251 17.5237 100.758 17.5237 103.257C17.5237 105.756 19.5509 107.79 22.0426 107.79C24.5342 107.79 26.5614 105.756 26.5614 103.257C26.5614 100.758 24.5342 98.7251 22.0426 98.7251Z" fill="#C8C5D0"/>
<path d="M23.1352 105.684C23.0477 105.684 22.9599 105.653 22.89 105.589L20.591 103.502C20.4411 103.366 20.4296 103.134 20.5653 102.984L22.6465 100.678C22.7818 100.528 23.0131 100.516 23.1627 100.652C23.3122 100.788 23.324 101.02 23.1883 101.17L21.3523 103.204L23.3804 105.046C23.5303 105.182 23.5417 105.414 23.4061 105.564C23.334 105.644 23.2347 105.684 23.1352 105.684Z" fill="#C8C5D0"/>
<path d="M61.5935 17.0664C62.6932 17.001 63.6401 17.8256 64.0772 18.465C64.4965 19.0783 65.1296 19.052 65.4965 20.6258C65.8906 22.3159 65.3679 25.3891 64.9643 26.2352C64.5688 27.0641 65.7698 27.6662 65.4965 28.877C65.3481 29.5343 64.805 30.195 64.0772 30.431C63.727 30.5446 63.2145 30.5986 61.5935 29.9648C59.5423 29.1628 58.5167 28.7618 58.0452 27.9446C57.5757 27.1306 58.0403 26.7126 58.4 24.5257C58.9326 21.288 58.2104 20.4027 59.2871 18.7758C59.6196 18.2734 60.3703 17.1391 61.5935 17.0664Z" fill="#2F2E41"/>
<path d="M39.2894 69.4854C39.4781 68.8455 39.7952 68.3013 40.17 67.9148L41.5835 61.7047L44.5101 62.4658L42.7611 68.6833C42.8659 69.2121 42.837 69.8418 42.6483 70.4817C42.2173 71.9436 41.1159 72.9057 40.1884 72.6306C39.2608 72.3555 38.8584 70.9473 39.2894 69.4854Z" fill="#FFB6B6"/>
<path d="M81.2081 32.4789C81.1558 33.1441 80.958 33.7424 80.6713 34.1985L80.572 40.5676L77.5518 40.4315L77.9776 33.9854C77.7657 33.4899 77.6639 32.8679 77.7162 32.2026C77.8357 30.6828 78.7143 29.5127 79.6786 29.5889C80.6428 29.6652 81.3276 30.9591 81.2081 32.4789Z" fill="#FFB6B6"/>
<path d="M45.0148 120.684L47.2168 120.736L48.4442 110.814L45.1946 110.737L45.0148 120.684Z" fill="#FFB6B6"/>
<path d="M52.5695 125.292C52.5695 125.665 52.3055 125.967 51.9799 125.967H47.6091C47.6091 125.967 47.179 124.233 45.4253 123.487L45.3043 125.967H43.0496L43.3227 121.979C43.3227 121.979 42.7196 119.845 43.9722 118.754C45.2248 117.663 44.2103 117.815 44.2103 117.815L44.703 115.347L48.1101 115.749L48.1352 119.624L49.7886 123.47L52.2139 124.671C52.4297 124.778 52.5695 125.022 52.5695 125.292Z" fill="#2F2E41"/>
<path d="M56.2915 116.361L58.4255 116.908L61.8444 107.517L58.6952 106.709L56.2915 116.361Z" fill="#FFB6B6"/>
<path d="M62.6208 122.554C62.5372 122.917 62.2122 123.153 61.8949 123.079L57.6359 122.094C57.6359 122.094 57.6053 120.307 56.0637 119.185L55.3901 121.575L53.193 121.067L54.3527 117.242C54.3527 117.242 54.243 115.027 55.708 114.246C57.1729 113.466 56.1503 113.385 56.1503 113.385L57.1835 111.091L60.4134 112.25L59.5697 116.031L60.3192 120.152L62.4132 121.869C62.5996 122.022 62.6812 122.291 62.6208 122.554Z" fill="#2F2E41"/>
<path d="M61.8597 53.456L62.7467 68.581L70.7706 90.83L62.9561 108.404H55.8003L62.3964 92.274L52.5455 70.0935L49.5742 116.1L43.5862 116.091L42.6104 68.8479C42.6104 68.8479 40.7476 55.2354 47.8441 49.7192L61.8597 53.456Z" fill="#2F2E41"/>
<path d="M61.1473 29.6796C60.1998 29.2977 59.2307 28.9109 58.211 28.8572C57.1913 28.8035 56.0934 29.1426 55.4883 29.9676C54.9728 30.6703 54.8797 31.6165 54.3648 32.3195C53.1024 34.0429 50.2133 33.3853 48.5912 34.7731C47.1037 36.0458 47.3351 38.3978 47.8922 40.2775C48.4494 42.1571 49.194 44.2278 48.3488 45.9961C47.6885 47.3774 46.103 48.4619 46.2894 49.9822C46.4507 51.2971 47.8541 52.0239 49.0766 52.5254L56.0694 55.394C57.4242 55.9497 58.8286 56.5151 60.2917 56.4733C61.7548 56.4315 63.3019 55.6133 63.7237 54.2075C64.1213 52.8822 63.4468 51.4474 63.6751 50.0825C63.8518 49.0268 64.5415 48.1443 65.1402 47.2581C67.3345 44.0104 68.5377 40.0987 68.5491 36.1755C65.1614 35.4917 62.2892 32.7043 61.4963 29.3308" fill="#4F44E2"/>
<path d="M65.9872 40.9431L75.4695 49.5325C76.5684 50.5279 78.0252 51.595 79.3923 51.0248C80.1369 50.7143 80.627 49.9638 80.8302 49.181C81.0334 48.3983 80.9924 47.5755 80.95 46.7678C80.7724 43.3855 81.3876 39.8665 81.21 36.4842C80.265 36.0913 78.5272 35.8351 77.5822 35.4422L76.3919 43.024L69.5859 36.922C68.7979 36.2155 67.8599 35.4601 66.8137 35.6108C65.7182 35.7685 64.9869 36.9247 64.932 38.0333C64.8771 39.1419 65.3336 40.2052 65.7986 41.2125" fill="#4F44E2"/>
<path d="M49.6192 35.6212C49.0515 34.8883 47.8228 35.0528 47.1664 35.7069C46.51 36.3611 46.2764 37.3175 46.0705 38.2223L39.9281 65.2089L43.7055 66.5381L48.5621 51.8243C49.4474 49.1423 50.337 46.4421 50.7242 43.6437C51.1114 40.8453 50.9714 37.9129 49.8552 35.319" fill="#4F44E2"/>
<path d="M59.021 28.8111C62.1074 28.8111 64.6095 26.3016 64.6095 23.2059C64.6095 20.1103 62.1074 17.6008 59.021 17.6008C55.9345 17.6008 53.4325 20.1103 53.4325 23.2059C53.4325 26.3016 55.9345 28.8111 59.021 28.8111Z" fill="#FFB6B6"/>
<path d="M63.3676 17.7787C63.2066 16.8364 62.0504 16.1381 61.0612 15.9993C60.2269 15.8822 60.0165 16.234 58.0452 16.5331C56.9913 16.6931 57.0385 16.5945 56.4485 16.7111C55.7682 16.8455 53.9733 17.2001 52.9003 18.6684C52.0942 19.7714 50.369 22.3709 50.8823 23.7821C51.1596 24.5446 52.9926 24.2968 52.7229 24.8964C52.5487 25.2835 52.2038 25.3156 51.8358 25.6081C50.9087 26.3451 50.6271 28.1046 51.1262 29.167C51.7165 30.4238 53.364 30.6288 55.9163 30.9464C58.5457 31.2736 61.0079 31.0379 61.0612 30.5905C61.0884 30.3622 60.4622 30.2963 60.1742 29.7008C59.8367 29.0031 60.3118 28.2987 60.529 27.5655C61.2065 25.2779 58.0619 26.1466 58.7414 24.4553C58.7652 24.396 58.7927 24.3211 58.823 24.2336C59.3258 22.7845 60.2923 20.512 60.2923 20.512C60.2923 20.512 60.9298 21.8923 60.9344 21.8892C61.6965 21.3636 64.472 22.5595 64.9548 21.8892C65.7314 20.8109 63.4039 17.9913 63.3676 17.7787Z" fill="#2F2E41"/>
<path d="M84.7752 37.0383C81.8803 37.0383 79.5253 34.6763 79.5253 31.7727C79.5253 28.8694 81.8803 26.5073 84.7752 26.5073C87.6701 26.5073 90.0251 28.8694 90.0251 31.7727C90.0251 34.6763 87.6701 37.0383 84.7752 37.0383ZM84.7752 27.2405C82.2835 27.2405 80.2563 29.2738 80.2563 31.7727C80.2563 34.2719 82.2835 36.3051 84.7752 36.3051C87.2669 36.3051 89.2941 34.2719 89.2941 31.7727C89.2941 29.2738 87.2669 27.2405 84.7752 27.2405Z" fill="#C8C5D0"/>
<path d="M84.7752 34.5722C86.3167 34.5722 87.5663 33.3189 87.5663 31.7728C87.5663 30.2267 86.3167 28.9734 84.7752 28.9734C83.2337 28.9734 81.9841 30.2267 81.9841 31.7728C81.9841 33.3189 83.2337 34.5722 84.7752 34.5722Z" fill="#4F44E2"/>
<path d="M18.0613 6.11795H7.80542C7.29008 6.11795 6.86975 6.53953 6.86975 7.05641C6.86975 7.57696 7.29008 7.99855 7.80542 7.99855H18.0613C18.5766 7.99855 18.997 7.57696 18.997 7.05641C18.997 6.53954 18.5766 6.11795 18.0613 6.11795Z" fill="#C8C5D0"/>
<path d="M35.2396 6.11795H24.9838C24.4684 6.11795 24.0481 6.53953 24.0481 7.05641C24.0481 7.57696 24.4684 7.99855 24.9838 7.99855H35.2396C35.755 7.99855 36.1753 7.57696 36.1753 7.05641C36.1753 6.53954 35.755 6.11795 35.2396 6.11795Z" fill="#C8C5D0"/>
<path d="M52.418 6.11795H42.1621C41.6468 6.11795 41.2264 6.53953 41.2264 7.05641C41.2264 7.57696 41.6468 7.99855 42.1621 7.99855H52.418C52.9333 7.99855 53.3537 7.57696 53.3537 7.05641C53.3537 6.53954 52.9333 6.11795 52.418 6.11795Z" fill="#C8C5D0"/>
</g>
<defs>
<clipPath id="clip0_365_907">
<rect width="125" height="126" fill="white"/>
</clipPath>
</defs>
</svg>
