<svg width="10" height="18" viewBox="0 0 10 18" fill="none" xmlns="http://www.w3.org/2000/svg">
<path d="M9.2447 1.51763C9.32625 1.43176 9.39001 1.33074 9.43232 1.22035C9.47464 1.10996 9.4947 0.992358 9.49134 0.874255C9.48798 0.756153 9.46128 0.639865 9.41276 0.532031C9.36424 0.424197 9.29485 0.326929 9.20855 0.24578C9.12225 0.164631 9.02073 0.101191 8.9098 0.059082C8.79886 0.0169728 8.68067 -0.00298116 8.56199 0.000359791C8.4433 0.00370074 8.32644 0.030271 8.21807 0.0785535C8.1097 0.126836 8.01195 0.195885 7.9304 0.281759L0.247082 8.37701C0.0884104 8.54401 0 8.76512 0 8.99495C0 9.22477 0.0884104 9.44588 0.247082 9.61288L7.9304 17.709C8.01142 17.7968 8.10914 17.8676 8.21791 17.9175C8.32667 17.9674 8.44431 17.9952 8.56398 17.9994C8.68366 18.0037 8.80298 17.9842 8.91503 17.9421C9.02708 17.9001 9.12961 17.8363 9.21668 17.7545C9.30375 17.6727 9.37361 17.5745 9.42221 17.4656C9.47081 17.3567 9.49718 17.2392 9.49979 17.1201C9.50239 17.001 9.48119 16.8825 9.4374 16.7716C9.39361 16.6607 9.32811 16.5596 9.2447 16.4741L2.14712 8.99495L9.2447 1.51763Z" fill="black"/>
</svg>
