<svg width="16" height="17" viewBox="0 0 16 17" fill="none" xmlns="http://www.w3.org/2000/svg">
<path d="M1.3335 5.00004C1.3335 4.35604 1.85616 3.83337 2.50016 3.83337H11.5002C12.1442 3.83337 12.6668 4.35604 12.6668 5.00004V10.6667C12.6668 10.9761 12.5439 11.2729 12.3251 11.4917C12.1063 11.7105 11.8096 11.8334 11.5002 11.8334H2.50016C2.19074 11.8334 1.894 11.7105 1.6752 11.4917C1.45641 11.2729 1.3335 10.9761 1.3335 10.6667V5.00004ZM3.3335 4.66671V5.33337C3.3335 5.46598 3.28082 5.59316 3.18705 5.68693C3.09328 5.7807 2.9661 5.83337 2.8335 5.83337H2.16683V6.83337H2.8335C3.03048 6.83337 3.22553 6.79458 3.40752 6.71919C3.58951 6.64381 3.75487 6.53332 3.89416 6.39403C4.03344 6.25475 4.14393 6.08939 4.21932 5.9074C4.2947 5.72541 4.3335 5.53036 4.3335 5.33337V4.66671H3.3335ZM7.00016 9.50004C7.39799 9.50004 7.77952 9.34201 8.06082 9.0607C8.34213 8.7794 8.50016 8.39787 8.50016 8.00004C8.50016 7.60222 8.34213 7.22069 8.06082 6.93938C7.77952 6.65808 7.39799 6.50004 7.00016 6.50004C6.60234 6.50004 6.22081 6.65808 5.9395 6.93938C5.6582 7.22069 5.50016 7.60222 5.50016 8.00004C5.50016 8.39787 5.6582 8.7794 5.9395 9.0607C6.22081 9.34201 6.60234 9.50004 7.00016 9.50004ZM2.16683 9.83337H2.8335C2.9661 9.83337 3.09328 9.88605 3.18705 9.97982C3.28082 10.0736 3.3335 10.2008 3.3335 10.3334V11H4.3335V10.3334C4.3335 9.93555 4.17546 9.55402 3.89416 9.27271C3.61285 8.99141 3.23132 8.83337 2.8335 8.83337H2.16683V9.83337ZM10.6668 10.3334C10.6668 10.2008 10.7195 10.0736 10.8133 9.97982C10.907 9.88605 11.0342 9.83337 11.1668 9.83337H11.8335V8.83337H11.1668C10.769 8.83337 10.3875 8.99141 10.1062 9.27271C9.82486 9.55402 9.66683 9.93555 9.66683 10.3334V11H10.6668V10.3334ZM10.6668 5.33337V4.66671H9.66683V5.33337C9.66683 5.53036 9.70563 5.72541 9.78101 5.9074C9.85639 6.08939 9.96688 6.25475 10.1062 6.39403C10.3875 6.67534 10.769 6.83337 11.1668 6.83337H11.8335V5.83337H11.1668C11.0342 5.83337 10.907 5.7807 10.8133 5.68693C10.7195 5.59316 10.6668 5.46598 10.6668 5.33337ZM2.93416 12.8334C3.1097 13.1375 3.36226 13.3901 3.66643 13.5657C3.9706 13.7412 4.31564 13.8336 4.66683 13.8334H11.5002C11.916 13.8334 12.3278 13.7515 12.712 13.5923C13.0962 13.4332 13.4453 13.1999 13.7393 12.9059C14.0334 12.6118 14.2666 12.2627 14.4258 11.8785C14.5849 11.4943 14.6668 11.0826 14.6668 10.6667V7.16671C14.6669 6.81553 14.5746 6.47051 14.399 6.16636C14.2235 5.8622 13.971 5.60963 13.6668 5.43404V10.6667C13.6668 11.2413 13.4386 11.7924 13.0322 12.1988C12.6259 12.6051 12.0748 12.8334 11.5002 12.8334H2.93416Z" fill="#ADAAAF"/>
</svg>
