<svg width="16" height="17" viewBox="0 0 16 17" fill="none" xmlns="http://www.w3.org/2000/svg">
<path d="M7.99986 14.5C7.79914 14.4997 7.60314 14.4391 7.43736 14.3259C4.98142 12.6587 3.91798 11.5156 3.33142 10.8009C2.08142 9.2775 1.48298 7.71344 1.49986 6.01969C1.51955 4.07875 3.07673 2.5 4.97111 2.5C6.34861 2.5 7.30267 3.27594 7.8583 3.92219C7.8759 3.94245 7.89764 3.9587 7.92207 3.96984C7.94649 3.98098 7.97302 3.98674 7.99986 3.98674C8.0267 3.98674 8.05323 3.98098 8.07765 3.96984C8.10207 3.9587 8.12382 3.94245 8.14142 3.92219C8.69705 3.27531 9.65111 2.5 11.0286 2.5C12.923 2.5 14.4802 4.07875 14.4999 6.02C14.5167 7.71406 13.9177 9.27813 12.6683 10.8013C12.0817 11.5159 11.0183 12.6591 8.56236 14.3263C8.39654 14.4393 8.20055 14.4998 7.99986 14.5Z" fill="#ADAAAF"/>
</svg>
