<svg width="16" height="17" viewBox="0 0 16 17" fill="none" xmlns="http://www.w3.org/2000/svg">
<g id="ph:star-fill">
<path id="Vector" d="M14.6565 7.64875L11.8377 10.1087L12.6821 13.7712C12.7268 13.9627 12.714 14.1631 12.6454 14.3474C12.5768 14.5316 12.4555 14.6916 12.2965 14.8072C12.1375 14.9229 11.9479 14.9891 11.7515 14.9976C11.555 15.0061 11.3605 14.9565 11.1921 14.855L7.99771 12.9175L4.81021 14.855C4.64182 14.9565 4.44724 15.0061 4.25082 14.9976C4.05439 14.9891 3.86483 14.9229 3.70583 14.8072C3.54683 14.6916 3.42545 14.5316 3.35686 14.3474C3.28828 14.1631 3.27553 13.9627 3.32021 13.7712L4.16333 10.1125L1.34396 7.64875C1.19484 7.52014 1.08701 7.35036 1.03399 7.16071C0.980978 6.97107 0.985134 6.76999 1.04594 6.58269C1.10675 6.39539 1.2215 6.23022 1.37581 6.10788C1.53011 5.98554 1.71711 5.91149 1.91333 5.895L5.62958 5.57312L7.08021 2.11312C7.15596 1.93157 7.28374 1.77649 7.44745 1.66741C7.61116 1.55833 7.80349 1.50012 8.00021 1.50012C8.19693 1.50012 8.38926 1.55833 8.55297 1.66741C8.71668 1.77649 8.84446 1.93157 8.92021 2.11312L10.3752 5.57312L14.0902 5.895C14.2864 5.91149 14.4734 5.98554 14.6277 6.10788C14.782 6.23022 14.8968 6.39539 14.9576 6.58269C15.0184 6.76999 15.0226 6.97107 14.9695 7.16071C14.9165 7.35036 14.8087 7.52014 14.6596 7.64875H14.6565Z" fill="#ADAAAF"/>
</g>
</svg>
