<svg width="16" height="17" viewBox="0 0 16 17" fill="none" xmlns="http://www.w3.org/2000/svg">
<path fill-rule="evenodd" clip-rule="evenodd" d="M7.77349 4.33337C7.21616 4.33337 6.85749 4.72804 6.85749 5.10671C6.85749 5.23932 6.80481 5.36649 6.71105 5.46026C6.61728 5.55403 6.4901 5.60671 6.35749 5.60671C6.22488 5.60671 6.09771 5.55403 6.00394 5.46026C5.91017 5.36649 5.85749 5.23932 5.85749 5.10671C5.85749 4.07804 6.76683 3.33337 7.77349 3.33337C8.78016 3.33337 9.68949 4.07804 9.68949 5.10671C9.68949 5.56004 9.52416 5.98271 9.22949 6.30271C9.13616 6.40471 9.03349 6.50604 8.93949 6.59937L8.89016 6.64737C8.78786 6.74631 8.68977 6.84951 8.59616 6.95671C8.54628 7.01424 8.50061 7.07529 8.45949 7.13937C8.84429 7.21156 9.21037 7.36126 9.53549 7.57937L14.4908 10.9194C15.1242 11.346 15.2955 12.0507 15.0755 12.6447C14.8588 13.2287 14.2815 13.6667 13.5315 13.6667H2.46816C1.72683 13.6667 1.15216 13.2367 0.930826 12.66C0.705492 12.0734 0.864159 11.3727 1.48283 10.938L6.21283 7.61004C6.56619 7.36335 6.97029 7.19888 7.39549 7.12871C7.46549 6.79071 7.65749 6.51671 7.83416 6.30871C7.94883 6.17404 8.07416 6.04804 8.18683 5.93671L8.24016 5.88337C8.33549 5.79004 8.41816 5.70804 8.49349 5.62604C8.61483 5.49404 8.68949 5.31404 8.68949 5.10604C8.68949 4.72804 8.33083 4.33337 7.77349 4.33337ZM8.97683 8.40804C8.65001 8.19181 8.26531 8.07976 7.87349 8.08671C7.4856 8.08864 7.10733 8.2076 6.78816 8.42804L2.05816 11.7554C1.82749 11.9174 1.79749 12.1274 1.86483 12.3014C1.93483 12.4847 2.13349 12.6667 2.46816 12.6667H13.5315C13.8708 12.6667 14.0688 12.482 14.1382 12.2967C14.2028 12.1207 14.1695 11.9087 13.9315 11.7487L8.97683 8.40804Z" fill="#ADAAAF"/>
</svg>
