<svg width="15" height="15" viewBox="0 0 15 15" fill="none" xmlns="http://www.w3.org/2000/svg">
<g id="solar:hanger-bold">
<path id="Vector" fill-rule="evenodd" clip-rule="evenodd" d="M7.2875 3.59375C6.765 3.59375 6.42875 3.96375 6.42875 4.31875C6.42875 4.44307 6.37936 4.5623 6.29145 4.65021C6.20355 4.73811 6.08432 4.7875 5.96 4.7875C5.83568 4.7875 5.71645 4.73811 5.62854 4.65021C5.54063 4.5623 5.49125 4.44307 5.49125 4.31875C5.49125 3.35437 6.34375 2.65625 7.2875 2.65625C8.23125 2.65625 9.08375 3.35437 9.08375 4.31875C9.08375 4.74375 8.92875 5.14 8.6525 5.44C8.565 5.53563 8.46875 5.63063 8.38062 5.71813L8.33437 5.76312C8.23846 5.85588 8.14651 5.95263 8.05875 6.05313C8.01199 6.10706 7.96917 6.16429 7.93062 6.22437C8.29137 6.29205 8.63457 6.43239 8.93937 6.63688L13.585 9.76812C14.1787 10.1681 14.3394 10.8287 14.1331 11.3856C13.93 11.9331 13.3887 12.3438 12.6856 12.3438H2.31375C1.61875 12.3438 1.08 11.9406 0.872497 11.4C0.661247 10.85 0.809997 10.1931 1.39 9.78562L5.82437 6.66563C6.15565 6.43435 6.53449 6.28016 6.93312 6.21438C6.99875 5.8975 7.17875 5.64063 7.34437 5.44563C7.45187 5.31938 7.56937 5.20125 7.675 5.09687L7.725 5.04688C7.81437 4.95937 7.89187 4.8825 7.9625 4.80562C8.07625 4.68187 8.14625 4.51312 8.14625 4.31813C8.14625 3.96375 7.81 3.59375 7.2875 3.59375ZM8.41562 7.41375C8.10923 7.21103 7.74857 7.10599 7.38125 7.1125C7.0176 7.11431 6.66297 7.22584 6.36375 7.4325L1.92937 10.5519C1.71312 10.7037 1.685 10.9006 1.74812 11.0637C1.81375 11.2356 2 11.4062 2.31375 11.4062H12.6856C13.0037 11.4062 13.1894 11.2331 13.2544 11.0594C13.315 10.8944 13.2837 10.6956 13.0606 10.5456L8.41562 7.41375Z" fill="#4F44E2"/>
</g>
</svg>
