<svg width="86" height="86" viewBox="0 0 86 86" fill="none" xmlns="http://www.w3.org/2000/svg">
<rect x="0.330017" y="0.329956" width="85.34" height="85.34" rx="10.0008" fill="#4F44E2"/>
<path d="M27.694 51.5067C25.685 51.5067 24.0315 51.0978 22.7336 50.2799C21.4357 49.4443 20.5379 48.3153 20.0401 46.893C19.56 45.4529 19.48 43.8261 19.8001 42.0126C20.1023 40.3058 20.7601 38.7324 21.7735 37.2923C22.787 35.8344 24.0937 34.6698 25.6939 33.7987C27.3118 32.9097 29.1163 32.4652 31.1076 32.4652C33.0989 32.4652 34.7435 32.8919 36.0413 33.7453C37.3392 34.5809 38.2371 35.7277 38.7349 37.1856C39.2327 38.6257 39.3216 40.2347 39.0016 42.0126C38.6815 43.8083 37.9882 45.4262 36.9214 46.8663C35.8547 48.3065 34.5212 49.4443 32.9211 50.2799C31.321 51.0978 29.5786 51.5067 27.694 51.5067ZM28.5474 46.573C29.3475 46.573 30.0764 46.3685 30.7343 45.9596C31.4099 45.5329 31.9699 44.9729 32.4144 44.2795C32.8766 43.5861 33.1878 42.8305 33.3478 42.0126C33.5078 41.1592 33.49 40.3858 33.2944 39.6924C33.1167 38.9991 32.7611 38.4479 32.2277 38.039C31.7121 37.6301 31.0454 37.4256 30.2275 37.4256C29.4097 37.4256 28.663 37.639 27.9874 38.0657C27.3295 38.4746 26.7784 39.0346 26.3339 39.7458C25.8894 40.4392 25.5961 41.1948 25.4538 42.0126C25.276 42.866 25.276 43.6394 25.4538 44.3328C25.6494 45.0262 26.005 45.5774 26.5206 45.9863C27.054 46.3774 27.7296 46.573 28.5474 46.573ZM42.1397 32.4652H55.9541L55.2607 36.8389H47.2068L46.4601 41.5593H53.634L52.9406 45.9063H45.7667L44.9666 51H39.2062L42.1397 32.4652ZM57.4151 32.4652H63.1489L60.2153 51H54.4815L57.4151 32.4652Z" fill="white"/>
</svg>
