<svg width="17" height="17" viewBox="0 0 17 17" fill="none" xmlns="http://www.w3.org/2000/svg">
<g id="fluent:money-24-filled">
<path id="Vector" d="M1.4165 4.78125C1.4165 4.097 1.97184 3.54166 2.65609 3.54166H12.2186C12.9028 3.54166 13.4582 4.097 13.4582 4.78125V10.8021C13.4582 11.1308 13.3276 11.4461 13.0951 11.6786C12.8626 11.9111 12.5473 12.0417 12.2186 12.0417H2.65609C2.32733 12.0417 2.01204 11.9111 1.77957 11.6786C1.5471 11.4461 1.4165 11.1308 1.4165 10.8021V4.78125ZM3.5415 4.42708V5.13541C3.5415 5.27631 3.48553 5.41144 3.3859 5.51106C3.28628 5.61069 3.15115 5.66666 3.01025 5.66666H2.30192V6.72916H3.01025C3.21955 6.72916 3.42679 6.68794 3.62016 6.60785C3.81352 6.52775 3.98921 6.41036 4.13721 6.26237C4.2852 6.11437 4.40259 5.93868 4.48269 5.74532C4.56278 5.55195 4.604 5.34471 4.604 5.13541V4.42708H3.5415ZM7.43734 9.5625C7.86003 9.5625 8.2654 9.39458 8.56429 9.0957C8.86317 8.79681 9.03109 8.39144 9.03109 7.96875C9.03109 7.54606 8.86317 7.14068 8.56429 6.8418C8.2654 6.54291 7.86003 6.375 7.43734 6.375C7.01465 6.375 6.60927 6.54291 6.31039 6.8418C6.0115 7.14068 5.84359 7.54606 5.84359 7.96875C5.84359 8.39144 6.0115 8.79681 6.31039 9.0957C6.60927 9.39458 7.01465 9.5625 7.43734 9.5625ZM2.30192 9.91666H3.01025C3.15115 9.91666 3.28628 9.97264 3.3859 10.0723C3.48553 10.1719 3.5415 10.307 3.5415 10.4479V11.1562H4.604V10.4479C4.604 10.0252 4.43609 9.61985 4.13721 9.32096C3.83832 9.02208 3.43294 8.85416 3.01025 8.85416H2.30192V9.91666ZM11.3332 10.4479C11.3332 10.307 11.3891 10.1719 11.4888 10.0723C11.5884 9.97264 11.7235 9.91666 11.8644 9.91666H12.5728V8.85416H11.8644C11.4417 8.85416 11.0364 9.02208 10.7375 9.32096C10.4386 9.61985 10.2707 10.0252 10.2707 10.4479V11.1562H11.3332V10.4479ZM11.3332 5.13541V4.42708H10.2707V5.13541C10.2707 5.34471 10.3119 5.55195 10.392 5.74532C10.4721 5.93868 10.5895 6.11437 10.7375 6.26237C11.0364 6.56125 11.4417 6.72916 11.8644 6.72916H12.5728V5.66666H11.8644C11.7235 5.66666 11.5884 5.61069 11.4888 5.51106C11.3891 5.41144 11.3332 5.27631 11.3332 5.13541ZM3.11721 13.1042C3.30372 13.4273 3.57207 13.6957 3.89524 13.8822C4.21842 14.0687 4.58503 14.1669 4.95817 14.1667H12.2186C12.6604 14.1667 13.0979 14.0796 13.5062 13.9106C13.9144 13.7415 14.2853 13.4936 14.5977 13.1812C14.9101 12.8688 15.158 12.4979 15.3271 12.0897C15.4961 11.6814 15.5832 11.2439 15.5832 10.8021V7.08333C15.5833 6.7102 15.4852 6.34363 15.2986 6.02046C15.1121 5.69729 14.8438 5.42894 14.5207 5.24237V10.8021C14.5207 11.4126 14.2781 11.9982 13.8464 12.4299C13.4147 12.8616 12.8291 13.1042 12.2186 13.1042H3.11721Z" fill="#4F44E2"/>
</g>
</svg>
