<svg width="123" height="124" viewBox="0 0 123 124" fill="none" xmlns="http://www.w3.org/2000/svg">
<rect width="123" height="123" rx="61.5" fill="#E4E1EC"/>
<circle cx="105.419" cy="106.419" r="9.2093" fill="white"/>
<path d="M97.5 94.5H97.7071L97.8536 94.3536L100.707 91.5H109.293L112.146 94.3536L112.293 94.5H112.5H117C117.663 94.5 118.299 94.7634 118.768 95.2322C119.237 95.7011 119.5 96.337 119.5 97V115C119.5 115.663 119.237 116.299 118.768 116.768C118.299 117.237 117.663 117.5 117 117.5H93C92.337 117.5 91.7011 117.237 91.2322 116.768C90.7634 116.299 90.5 115.663 90.5 115V97C90.5 96.337 90.7634 95.7011 91.2322 95.2322C91.7011 94.7634 92.337 94.5 93 94.5H97.5ZM105 98C102.878 98 100.843 98.8429 99.3431 100.343C97.8429 101.843 97 103.878 97 106C97 108.122 97.8429 110.157 99.3431 111.657C100.843 113.157 102.878 114 105 114C107.122 114 109.157 113.157 110.657 111.657C112.157 110.157 113 108.122 113 106C113 103.878 112.157 101.843 110.657 100.343C109.157 98.8429 107.122 98 105 98ZM105 102C106.061 102 107.078 102.421 107.828 103.172C108.579 103.922 109 104.939 109 106C109 107.061 108.579 108.078 107.828 108.828C107.078 109.579 106.061 110 105 110C103.939 110 102.922 109.579 102.172 108.828C101.421 108.078 101 107.061 101 106C101 104.939 101.421 103.922 102.172 103.172C102.922 102.421 103.939 102 105 102Z" fill="#100069" stroke="white"/>
</svg>
