<svg width="24" height="24" viewBox="0 0 24 24" fill="none" xmlns="http://www.w3.org/2000/svg">
<path d="M15.6465 14.1468C15.5527 14.0528 15.4254 14 15.2926 14H14.8263C14.7517 14 14.68 13.9711 14.6263 13.9192C14.5161 13.8131 14.5087 13.6398 14.6036 13.5198C15.5073 12.3778 16.001 10.9616 16 9.5C16 8.21442 15.6188 6.95772 14.9046 5.8888C14.1903 4.81988 13.1752 3.98676 11.9874 3.49479C10.7997 3.00282 9.49279 2.87409 8.23192 3.1249C6.97104 3.3757 5.81285 3.99477 4.90381 4.90381C3.99477 5.81285 3.3757 6.97104 3.1249 8.23192C2.87409 9.49279 3.00282 10.7997 3.49479 11.9874C3.98676 13.1752 4.81988 14.1903 5.8888 14.9046C6.95772 15.6188 8.21442 16 9.5 16C11.0127 16 12.4107 15.4791 13.5197 14.6033C13.6398 14.5085 13.813 14.5161 13.9192 14.6262C13.971 14.68 14 14.7518 14 14.8265V15.2926C14 15.4254 14.0528 15.5527 14.1468 15.6465L18.6465 20.1372C18.8418 20.3321 19.1581 20.3319 19.3532 20.1368L20.1368 19.3532C20.3319 19.1581 20.3321 18.8418 20.1372 18.6465L15.6465 14.1468ZM9.5 14C7.01 14 5 11.99 5 9.5C5 7.01 7.01 5 9.5 5C11.99 5 14 7.01 14 9.5C14 11.99 11.99 14 9.5 14Z" fill="#ADAAAF"/>
</svg>
