<svg width="13" height="13" viewBox="0 0 13 13" fill="none" xmlns="http://www.w3.org/2000/svg">
<g id="star">
<path id="Vector" d="M11.9083 5.80838L9.61808 7.80713L10.3041 10.7829C10.3404 10.9385 10.3301 11.1013 10.2744 11.251C10.2186 11.4007 10.12 11.5307 9.99081 11.6246C9.86163 11.7186 9.70761 11.7724 9.54801 11.7793C9.38842 11.7862 9.23033 11.7459 9.09351 11.6635L6.49808 10.0892L3.90823 11.6635C3.77141 11.7459 3.61332 11.7862 3.45373 11.7793C3.29413 11.7724 3.14011 11.7186 3.01093 11.6246C2.88174 11.5307 2.78312 11.4007 2.72739 11.251C2.67166 11.1013 2.6613 10.9385 2.69761 10.7829L3.38265 7.81018L1.09191 5.80838C0.970746 5.70388 0.883135 5.56594 0.840059 5.41185C0.796983 5.25776 0.80036 5.09439 0.849767 4.94221C0.899173 4.79003 0.992409 4.65583 1.11778 4.55643C1.24316 4.45703 1.39509 4.39686 1.55452 4.38346L4.57398 4.12193L5.75261 1.31068C5.81416 1.16317 5.91798 1.03717 6.05099 0.948542C6.18401 0.859914 6.34027 0.812622 6.50011 0.812622C6.65995 0.812622 6.81621 0.859914 6.94923 0.948542C7.08224 1.03717 7.18606 1.16317 7.24761 1.31068L8.4298 4.12193L11.4482 4.38346C11.6077 4.39686 11.7596 4.45703 11.885 4.55643C12.0103 4.65583 12.1036 4.79003 12.153 4.94221C12.2024 5.09439 12.2058 5.25776 12.1627 5.41185C12.1196 5.56594 12.032 5.70388 11.9109 5.80838H11.9083Z" fill="#4F44E2"/>
</g>
</svg>
