<svg width="3136" height="2173" viewBox="0 0 3136 2173" fill="none" xmlns="http://www.w3.org/2000/svg">
<g clip-path="url(#clip0_179_749)">
<path d="M2300.83 1.25603H0.980957V1422.12H2300.83V1.25603Z" fill="#E6E6E6"/>
<path d="M2235.07 179.467H66.7456V1338.06H2235.07V179.467Z" fill="white"/>
<path d="M2299.85 0H0V94.2517H2299.85V0Z" fill="#6C63FF"/>
<path d="M72.6101 65.6596C82.6123 65.6596 90.7207 57.8378 90.7207 48.1891C90.7207 38.5405 82.6123 30.7187 72.6101 30.7187C62.6079 30.7187 54.4995 38.5405 54.4995 48.1891C54.4995 57.8378 62.6079 65.6596 72.6101 65.6596Z" fill="white"/>
<path d="M141.346 65.6596C151.348 65.6596 159.457 57.8378 159.457 48.1891C159.457 38.5405 151.348 30.7187 141.346 30.7187C131.344 30.7187 123.235 38.5405 123.235 48.1891C123.235 57.8378 131.344 65.6596 141.346 65.6596Z" fill="white"/>
<path d="M210.082 65.6596C220.084 65.6596 228.193 57.8378 228.193 48.1891C228.193 38.5405 220.084 30.7187 210.082 30.7187C200.08 30.7187 191.972 38.5405 191.972 48.1891C191.972 57.8378 200.08 65.6596 210.082 65.6596Z" fill="white"/>
<path d="M757.623 274.765H333.532V718.604H757.623V274.765Z" fill="#E6E6E6"/>
<path d="M1362.95 274.765H938.857V718.604H1362.95V274.765Z" fill="#E6E6E6"/>
<path d="M1968.27 274.765H1544.18V718.604H1968.27V274.765Z" fill="#E6E6E6"/>
<path d="M757.623 798.94H333.532V1242.78H757.623V798.94Z" fill="#E6E6E6"/>
<path d="M1362.95 798.94H938.857V1242.78H1362.95V798.94Z" fill="#E6E6E6"/>
<path d="M1968.27 798.94H1544.18V1242.78H1968.27V798.94Z" fill="#E6E6E6"/>
<path d="M1041.36 913.009L1118.85 883.457L1127.86 1031.21C1127.86 1031.21 1144.07 1076.41 1138.67 1093.79C1138.67 1093.79 1142.27 1123.35 1133.26 1125.08C1124.25 1126.82 1099.02 1130.3 1097.23 1128.56C1095.45 1126.82 1095.43 1121.61 1095.43 1121.61C1095.43 1121.61 1077.41 1133.77 1075.61 1147.68C1075.61 1147.68 999.924 1170.28 998.123 1149.42C996.322 1128.56 1035.96 1111.17 1035.96 1111.17L1066.6 1065.98L1041.36 913.009Z" fill="white"/>
<path d="M1205.35 913.009L1282.83 883.457L1291.84 1031.21C1291.84 1031.21 1308.05 1076.41 1302.65 1093.79C1302.65 1093.79 1306.25 1123.35 1297.24 1125.08C1288.23 1126.82 1263 1130.3 1261.21 1128.56C1259.43 1126.82 1259.41 1121.61 1259.41 1121.61C1259.41 1121.61 1241.39 1133.77 1239.59 1147.68C1239.59 1147.68 1163.9 1170.28 1162.1 1149.42C1160.3 1128.56 1199.94 1111.17 1199.94 1111.17L1230.58 1065.98L1205.35 913.009Z" fill="white"/>
<path d="M1212.92 342.424C1212.92 342.424 1196.42 386.896 1215.54 406.951L1199.6 459.782C1199.6 459.782 1256.23 623.654 1240.05 646.544C1240.05 646.544 1179.65 675.677 1058.84 636.139L1107.91 452.497L1100.9 374.983L1110.61 338.566L1132.18 336.501C1132.18 336.501 1119.24 383.321 1142.96 390.606C1166.69 397.891 1189.84 337.671 1189.84 337.671L1212.92 342.424Z" fill="#3F3D56"/>
<path d="M450.967 629.504L471.788 637.722L571.163 511.733L602.394 659.631L623.215 655.98C636.571 528.47 647.472 398.414 634.099 336.901L556.966 333.704L521.95 441.448L504.913 514.485L450.967 629.504Z" fill="white"/>
<path d="M1714.67 335.892C1714.67 335.892 1686.25 373.999 1687.64 389.377C1689.03 404.756 1707.04 655.467 1707.04 655.467L1749.32 657.473L1736.84 476.96L1747.23 428.155L1772.88 655.467L1824.86 656.806L1778.42 361.969L1769.41 335.896L1714.67 335.892Z" fill="white"/>
<path d="M1875.27 949.805C1867.72 941.071 1854.75 936.35 1842.3 933.797C1842.66 932.706 1804.42 925.084 1803.77 926.653L1789.36 915.576L1745.07 937.761L1720.18 921.416L1708.62 925.373C1709.09 923.405 1672.73 929.482 1672.73 929.482C1665.78 929.723 1656.91 930.142 1646.98 930.879C1612.2 933.46 1609.52 1020.35 1609.52 1020.35C1625.52 1014.03 1642.58 1010.59 1659.87 1010.18L1669.27 1114.1C1717.61 1110.1 1768.32 1114.75 1820.87 1126.14L1845.52 1044.45L1902.91 1022.92C1902.91 1022.92 1893.1 970.448 1875.27 949.805Z" fill="#3F3D56"/>
<path d="M643.666 900.318C637.449 893.123 626.765 889.231 616.502 887.129C616.809 886.227 585.293 879.95 584.754 881.244L572.876 872.119L536.387 890.398L515.879 876.933L506.355 880.195C506.743 878.574 476.783 883.577 476.783 883.577C471.075 883.777 463.748 884.121 455.569 884.73C426.914 886.857 424.709 958.442 424.709 958.442C437.893 953.239 451.951 950.399 466.192 950.063L473.936 1159.67C513.771 1156.38 555.55 1160.21 598.841 1169.6L619.145 978.307L666.436 960.568C666.436 960.568 658.359 917.335 643.666 900.318Z" fill="white"/>
<path d="M2673.43 956.112H2876.75V851.159C2876.75 825.149 2866.04 800.204 2846.98 781.812C2827.91 763.42 2802.05 753.088 2775.09 753.088C2748.13 753.088 2722.27 763.42 2703.2 781.812C2684.14 800.204 2673.43 825.149 2673.43 851.159V956.112Z" fill="#2F2E41"/>
<path d="M2582.66 2123.83H2538.93L2518.12 1961.09H2582.67L2582.66 2123.83Z" fill="#FFB6B6"/>
<path d="M2593.81 2110.05H2507.68C2493.13 2110.05 2479.17 2115.63 2468.88 2125.56C2458.58 2135.49 2452.8 2148.95 2452.8 2162.99V2164.72H2593.81V2110.05Z" fill="#2F2E41"/>
<path d="M3105.44 2067.53L3067.36 2088.27L2966.31 1956.44L3022.52 1925.83L3105.44 2067.53Z" fill="#FFB6B6"/>
<path d="M3108.14 2050.24L3033.14 2091.08C3020.46 2097.98 3011.15 2109.46 3007.25 2122.99C3003.34 2136.51 3005.17 2150.98 3012.33 2163.21L3013.2 2164.71L3136 2097.84L3108.14 2050.24Z" fill="#2F2E41"/>
<path d="M2825.94 1392.01L2829.32 1408.28C2829.32 1408.28 2839.44 1418.05 2834.38 1422.93C2829.32 1427.81 2831 1450.61 2831 1450.61C2833.83 1492.16 2890.12 1725.67 2900.19 1771.28C2900.19 1771.28 2977.81 1820.11 3038.56 1916.15C3099.3 2012.19 3100.98 2036.6 3100.98 2036.6L3033.5 2064.28L2864.77 1867.32C2864.77 1867.32 2817.52 1839.65 2800.65 1815.23C2783.77 1790.82 2679.13 1538.5 2679.13 1538.5L2620.06 1802.21C2620.06 1802.21 2623.44 1898.24 2608.25 1960.1C2598.91 1999.14 2593.26 2038.91 2591.38 2078.93L2512.07 2070.79C2512.07 2070.79 2517.13 1839.65 2525.57 1815.23C2525.57 1815.23 2490.13 1533.62 2561 1421.3L2618.12 1274.41L2674.06 1253.64L2825.94 1392.01Z" fill="#2F2E41"/>
<path d="M2776.14 778.744C2669.67 780.499 2669.69 933.274 2776.14 935.012C2882.6 933.257 2882.59 780.482 2776.14 778.744Z" fill="#FFB8B8"/>
<path d="M2694.2 852.825H2712.29L2717.22 840.939L2714.76 852.825H2813.73L2810.52 827.956L2834.57 852.825H2858.57V839.349C2858.58 828.938 2856.46 818.628 2852.34 809.007C2848.21 799.386 2842.17 790.643 2834.54 783.276C2826.91 775.909 2817.86 770.064 2807.89 766.073C2797.92 762.082 2787.24 760.024 2776.45 760.017C2765.66 760.01 2754.97 762.053 2744.99 766.03C2735.02 770.007 2725.96 775.841 2718.32 783.197C2710.68 790.553 2704.62 799.288 2700.49 808.904C2696.35 818.519 2694.22 828.826 2694.21 839.237V839.349L2694.2 852.825Z" fill="#2F2E41"/>
<path d="M2666.35 980.634L2867.54 982.206L2825.03 1398.29C2825.03 1398.29 2589.74 1386.31 2589.6 1317.04L2611.64 1255.47L2666.35 980.634Z" fill="#3F3D56"/>
<path d="M2876.18 1438.52C2873.09 1434.86 2870.87 1430.6 2869.67 1426.03C2868.47 1421.45 2868.32 1416.68 2869.24 1412.05C2870.16 1407.42 2872.12 1403.03 2874.98 1399.21C2877.85 1395.39 2881.54 1392.22 2885.82 1389.92L2877.07 1316.67L2921.92 1300.69L2932.76 1404.3C2936.26 1411.48 2936.92 1419.64 2934.6 1427.25C2932.28 1434.86 2927.16 1441.39 2920.19 1445.6C2913.23 1449.81 2904.91 1451.42 2896.8 1450.11C2888.69 1448.81 2881.35 1444.68 2876.18 1438.52Z" fill="#FFB6B6"/>
<path d="M2841.08 1018.05L2867.55 982.358C2867.55 982.358 2885.67 978.479 2907.08 1002.57C2928.48 1026.65 2940.96 1327.75 2940.96 1327.75L2862.49 1344.96L2816.11 1131.61L2841.08 1018.05Z" fill="#3F3D56"/>
<path d="M2397.63 1344.57L2403.46 1612.07L2582.98 1703.59L2909.91 1647.27L2917.94 1369.21L2710.69 1298.81L2397.63 1344.57Z" fill="white"/>
<path d="M2582.52 1706.48L2400.63 1613.76L2394.71 1342.2L2710.97 1295.98L2711.64 1296.2L2920.86 1367.27L2912.71 1649.6L2582.52 1706.48ZM2406.3 1610.39L2583.45 1700.7L2907.11 1644.94L2915.01 1371.15L2710.41 1301.65L2400.55 1346.94L2406.3 1610.39Z" fill="#CACACA"/>
<path d="M2578.98 1417.1L2578.27 1416.83L2396.57 1347.14L2398.68 1342L2579.69 1411.42L2917.55 1366.47L2918.33 1371.95L2578.98 1417.1Z" fill="#CACACA"/>
<path d="M2582.2 1414.23L2576.47 1414.29L2580.12 1703.62L2585.85 1703.55L2582.2 1414.23Z" fill="#CACACA"/>
<path d="M2556.02 1403.25L2490.51 1377.64L2805.84 1329.17L2871.34 1354.78L2556.02 1403.25Z" fill="#CACACA"/>
<path d="M2398.76 1422.17L2396.49 1427.25L2472.46 1458.8L2474.73 1453.72L2398.76 1422.17Z" fill="#CACACA"/>
<path d="M2433.16 1513.43L2430.89 1518.51L2506.86 1550.06L2509.13 1544.98L2433.16 1513.43Z" fill="#6C63FF"/>
<path d="M1398.82 1716.21L1404.65 1983.71L1584.17 2075.23L1911.1 2018.91L1919.13 1740.85L1711.88 1670.45L1398.82 1716.21Z" fill="white"/>
<path d="M1583.7 2078.11L1401.82 1985.4L1395.9 1713.84L1712.16 1667.61L1712.83 1667.84L1922.05 1738.91L1913.9 2021.23L1583.7 2078.11ZM1407.48 1982.02L1584.64 2072.34L1908.3 2016.58L1916.2 1742.79L1711.6 1673.29L1401.73 1718.58L1407.48 1982.02Z" fill="#CACACA"/>
<path d="M1580.17 1788.74L1579.46 1788.47L1397.76 1718.78L1399.87 1713.64L1580.88 1783.06L1918.73 1738.11L1919.52 1743.59L1580.17 1788.74Z" fill="#CACACA"/>
<path d="M1583.39 1785.87L1577.66 1785.93L1581.3 2075.26L1587.04 2075.19L1583.39 1785.87Z" fill="#CACACA"/>
<path d="M1541.34 1768.59L1491.7 1749.28L1807.02 1700.81L1856.65 1720.13L1541.34 1768.59Z" fill="#CACACA"/>
<path d="M1399.95 1793.81L1397.68 1798.89L1473.65 1830.44L1475.92 1825.36L1399.95 1793.81Z" fill="#CACACA"/>
<path d="M1434.35 1885.07L1432.08 1890.15L1508.05 1921.7L1510.32 1916.62L1434.35 1885.07Z" fill="#6C63FF"/>
<path d="M1710.69 1752.88L1717.47 2063.41L1925.86 2169.65L2305.37 2104.27L2314.68 1781.49L2074.1 1699.77L1710.69 1752.88Z" fill="#6C63FF"/>
<path d="M1925.31 2173L1714.18 2065.37L1707.3 1750.13L2074.43 1696.48L2075.21 1696.74L2318.08 1779.24L2308.62 2106.97L1925.31 2173ZM1720.75 2061.46L1926.4 2166.29L2302.11 2101.57L2311.29 1783.74L2073.78 1703.06L1714.08 1755.64L1720.75 2061.46Z" fill="#3F3D56"/>
<path d="M1921.21 1837.08L1920.39 1836.77L1709.46 1755.87L1711.92 1749.9L1922.03 1830.49L2314.23 1778.31L2315.14 1784.67L1921.21 1837.08Z" fill="#3F3D56"/>
<path d="M1924.95 1833.75L1918.29 1833.82L1922.53 2169.68L1929.18 2169.61L1924.95 1833.75Z" fill="#3F3D56"/>
<path d="M1879.51 1813.84L1818.51 1791.27L2184.55 1735.01L2245.55 1757.58L1879.51 1813.84Z" fill="#3F3D56"/>
<path d="M1712 1842.97L1709.37 1848.86L1797.56 1885.49L1800.19 1879.59L1712 1842.97Z" fill="#3F3D56"/>
<path d="M1751.94 1948.9L1749.31 1954.8L1837.49 1991.43L1840.12 1985.53L1751.94 1948.9Z" fill="white"/>
<path d="M2499.41 1388.8C2503.84 1386.8 2507.75 1383.88 2510.89 1380.26C2514.02 1376.64 2516.29 1372.4 2517.54 1367.84C2518.79 1363.28 2518.98 1358.51 2518.12 1353.87C2517.25 1349.23 2515.34 1344.82 2512.51 1340.97L2553.26 1278.58L2520 1245.45L2463.74 1334.33C2457.35 1339.34 2453.08 1346.43 2451.75 1354.27C2450.41 1362.1 2452.1 1370.14 2456.5 1376.85C2460.9 1383.56 2467.69 1388.49 2475.6 1390.69C2483.51 1392.9 2491.98 1392.22 2499.41 1388.81V1388.8Z" fill="#FFB6B6"/>
<path d="M2697.27 997.034L2668.08 978.479C2668.08 978.479 2645.55 983.352 2621.59 1027.8C2597.63 1072.26 2501.02 1270.99 2501.02 1270.99L2540.73 1309.88L2646.68 1153.97L2697.27 997.034Z" fill="#3F3D56"/>
</g>
<defs>
<clipPath id="clip0_179_749">
<rect width="3136" height="2173" fill="white"/>
</clipPath>
</defs>
</svg>
