<svg width="139" height="97" viewBox="0 0 139 97" fill="none" xmlns="http://www.w3.org/2000/svg">
<path d="M102.672 0H0V63.4256H102.672V0Z" fill="#C8C5D0"/>
<path d="M99.736 7.95508H2.93591V59.6732H99.736V7.95508Z" fill="white"/>
<path d="M33.7787 12.209H14.8461V32.0215H33.7787V12.209Z" fill="#C8C5D0"/>
<path d="M60.8022 12.209H41.8695V32.0215H60.8022V12.209Z" fill="#C8C5D0"/>
<path d="M87.8255 12.209H68.8928V32.0215H87.8255V12.209Z" fill="#C8C5D0"/>
<path d="M33.7787 35.6076H14.8461V55.4201H33.7787V35.6076Z" fill="#C8C5D0"/>
<path d="M60.8022 35.6076H41.8695V55.4201H60.8022V35.6076Z" fill="#C8C5D0"/>
<path d="M87.8255 35.6076H68.8928V55.4201H87.8255V35.6076Z" fill="#C8C5D0"/>
<path d="M46.4455 40.6995L49.9047 39.3803L50.307 45.976C50.307 45.976 51.0309 47.9935 50.7897 48.7695C50.7897 48.7695 50.9505 50.0887 50.5482 50.1662C50.146 50.2438 49.0194 50.3991 48.9398 50.3214C48.8602 50.2437 48.8594 50.0109 48.8594 50.0109C48.8594 50.0109 48.0549 50.5541 47.9744 51.1748C47.9744 51.1748 44.5957 52.1835 44.5152 51.2524C44.4348 50.3212 46.2045 49.5452 46.2045 49.5452L47.5722 47.5277L46.4455 40.6995Z" fill="white"/>
<path d="M53.7665 40.6995L57.2253 39.3803L57.6275 45.976C57.6275 45.976 58.3515 47.9935 58.1102 48.7695C58.1102 48.7695 58.271 50.0887 57.8688 50.1662C57.4665 50.2438 56.34 50.3991 56.2604 50.3214C56.1807 50.2437 56.1799 50.0109 56.1799 50.0109C56.1799 50.0109 55.3754 50.5541 55.295 51.1748C55.295 51.1748 51.9162 52.1835 51.8358 51.2524C51.7554 50.3212 53.5251 49.5452 53.5251 49.5452L54.8927 47.5277L53.7665 40.6995Z" fill="white"/>
<path d="M54.1045 15.2293C54.1045 15.2293 53.368 17.2145 54.2214 18.1097L53.5098 20.468C53.5098 20.468 56.0378 27.783 55.3156 28.8048C55.3156 28.8048 52.6192 30.1053 47.2257 28.3403L49.4165 20.1428L49.1036 16.6827L49.5369 15.0571L50.4999 14.9649C50.4999 14.9649 49.9221 17.0549 50.9814 17.3801C52.0408 17.7052 53.0741 15.0171 53.0741 15.0171L54.1045 15.2293Z" fill="#4F44E2"/>
<path d="M20.0886 28.0442L21.0182 28.411L25.4545 22.787L26.8488 29.389L27.7783 29.226C28.3745 23.5341 28.8612 17.7286 28.2642 14.9827L24.8207 14.84L23.2575 19.6496L22.4969 22.9099L20.0886 28.0442Z" fill="white"/>
<path d="M76.5038 14.9377C76.5038 14.9377 75.2352 16.6388 75.2971 17.3252C75.3591 18.0117 76.1634 29.2032 76.1634 29.2032L78.0509 29.2927L77.4935 21.2348L77.9575 19.0562L79.1024 29.2032L81.423 29.2629L79.35 16.1018L78.9478 14.9379L76.5038 14.9377Z" fill="white"/>
<path d="M83.6735 42.342C83.3367 41.9522 82.7577 41.7414 82.2017 41.6274C82.2177 41.5787 80.5108 41.2385 80.4819 41.3085L79.8383 40.8141L77.8609 41.8044L76.7499 41.0748L76.2337 41.2514C76.2547 41.1635 74.6315 41.4348 74.6315 41.4348C74.3215 41.4456 73.9254 41.4643 73.4821 41.4972C71.9295 41.6124 71.8099 45.4909 71.8099 45.4909C72.5243 45.2091 73.2859 45.0553 74.0574 45.037L74.477 49.6759C76.6353 49.4975 78.8989 49.7051 81.2451 50.2136L82.3454 46.5669L84.9075 45.6058C84.9075 45.6058 84.4698 43.2635 83.6735 42.342Z" fill="#4F44E2"/>
<path d="M28.6913 40.133C28.4137 39.8118 27.9367 39.6381 27.4786 39.5442C27.4923 39.504 26.0853 39.2238 26.0613 39.2816L25.531 38.8742L23.902 39.6902L22.9865 39.0891L22.5613 39.2347C22.5786 39.1624 21.2411 39.3857 21.2411 39.3857C20.9863 39.3946 20.6592 39.41 20.294 39.4372C19.0148 39.5321 18.9164 42.7276 18.9164 42.7276C19.505 42.4953 20.1325 42.3686 20.7683 42.3535L21.114 51.7103C22.8924 51.5632 24.7575 51.7344 26.6901 52.1533L27.5966 43.6143L29.7077 42.8225C29.7077 42.8225 29.3472 40.8926 28.6913 40.133Z" fill="white"/>
<path d="M119.306 42.6236H128.383V37.9386C128.383 36.7775 127.905 35.664 127.053 34.843C126.202 34.022 125.048 33.5608 123.844 33.5608C122.64 33.5608 121.486 34.022 120.635 34.843C119.784 35.664 119.306 36.7775 119.306 37.9386V42.6236Z" fill="#2F2E41"/>
<path d="M115.253 94.7489H113.301L112.372 87.4846H115.254L115.253 94.7489Z" fill="#FFB6B6"/>
<path d="M115.751 94.134H111.906C111.257 94.1341 110.633 94.3831 110.174 94.8262C109.714 95.2694 109.456 95.8705 109.456 96.4973V96.5741H115.751V94.134Z" fill="#2F2E41"/>
<path d="M126.114 62.0813L126.265 62.8079C126.265 62.8079 126.717 63.2438 126.491 63.4618C126.265 63.6797 126.34 64.6971 126.34 64.6971C126.467 66.552 128.979 76.9757 129.429 79.0115C129.429 79.0115 132.894 81.1913 135.606 85.4783C138.318 89.7653 138.393 90.8553 138.393 90.8553L135.38 92.0908L127.848 83.2986C127.848 83.2986 125.738 82.0633 124.985 80.9735C124.232 79.8837 119.56 68.6208 119.56 68.6208L116.923 80.3921C116.923 80.3921 117.074 84.6791 116.396 87.4403C115.979 89.1828 115.727 90.9582 115.643 92.7447L112.102 92.3814C112.102 92.3814 112.328 82.0634 112.705 80.9734C112.705 80.9734 111.123 68.4028 114.287 63.3891L116.837 56.8321L119.334 55.905L126.114 62.0813Z" fill="#2F2E41"/>
<path d="M123.891 34.7061C119.138 34.7845 119.139 41.6041 123.891 41.6817C128.644 41.6033 128.643 34.7837 123.891 34.7061Z" fill="#FFB8B8"/>
<path d="M120.233 38.0129H121.041L121.261 37.4824L121.151 38.0129H125.569L125.426 36.9028L126.5 38.0129H127.571V37.4114C127.571 36.9467 127.477 36.4864 127.293 36.057C127.109 35.6275 126.839 35.2372 126.498 34.9084C126.158 34.5795 125.754 34.3186 125.309 34.1404C124.864 33.9623 124.387 33.8704 123.905 33.8701C123.423 33.8698 122.946 33.961 122.501 34.1385C122.055 34.3161 121.651 34.5765 121.31 34.9048C120.969 35.2332 120.698 35.6231 120.514 36.0524C120.329 36.4816 120.234 36.9417 120.233 37.4064V37.4114L120.233 38.0129Z" fill="#2F2E41"/>
<path d="M118.99 43.7182L127.971 43.7884L126.074 62.362C126.074 62.362 115.57 61.8273 115.563 58.7348L116.547 55.9866L118.99 43.7182Z" fill="#4F44E2"/>
<path d="M128.357 64.1575C128.219 63.9944 128.12 63.8041 128.066 63.6C128.013 63.3958 128.006 63.1829 128.047 62.9761C128.088 62.7693 128.176 62.5736 128.304 62.403C128.432 62.2323 128.597 62.0907 128.787 61.9883L128.397 58.7184L130.399 58.0049L130.883 62.6302C131.039 62.9505 131.069 63.315 130.965 63.6546C130.862 63.9943 130.633 64.2857 130.322 64.4737C130.011 64.6617 129.64 64.7334 129.278 64.6751C128.915 64.6169 128.588 64.4327 128.357 64.1575Z" fill="#FFB6B6"/>
<path d="M126.79 45.3885L127.972 43.7951C127.972 43.7951 128.781 43.622 129.736 44.6973C130.692 45.7725 131.249 59.213 131.249 59.213L127.746 59.9811L125.676 50.4575L126.79 45.3885Z" fill="#4F44E2"/>
<path d="M106.993 59.9639L107.254 71.9048L115.268 75.9899L129.863 73.476L130.221 61.0637L120.969 57.9212L106.993 59.9639Z" fill="white"/>
<path d="M115.247 76.1188L107.127 71.98L106.863 59.858L120.982 57.7946L121.012 57.8048L130.352 60.9771L129.988 73.5798L115.247 76.1188ZM107.38 71.8295L115.289 75.8609L129.738 73.3721L130.091 61.1502L120.957 58.0479L107.123 60.0696L107.38 71.8295Z" fill="#C8C5D0"/>
<path d="M115.089 63.2014L115.058 63.1894L106.946 60.0785L107.04 59.8491L115.121 62.948L130.204 60.9414L130.239 61.186L115.089 63.2014Z" fill="#C8C5D0"/>
<path d="M115.233 63.0732L114.977 63.0762L115.14 75.9914L115.396 75.9884L115.233 63.0732Z" fill="#C8C5D0"/>
<path d="M114.064 62.5833L111.14 61.4398L125.217 59.2763L128.141 60.4196L114.064 62.5833Z" fill="#C8C5D0"/>
<path d="M107.044 63.4278L106.943 63.6545L110.334 65.063L110.435 64.8362L107.044 63.4278Z" fill="#C8C5D0"/>
<path d="M108.579 67.5014L108.478 67.7281L111.87 69.1366L111.971 68.9098L108.579 67.5014Z" fill="#6C63FF"/>
<path d="M62.4034 76.5533L62.664 88.4942L70.6782 92.5794L85.2731 90.0655L85.6315 77.6532L76.3793 74.5107L62.4034 76.5533Z" fill="white"/>
<path d="M70.6572 92.7083L62.5375 88.5695L62.2729 76.4475L76.3917 74.3841L76.4217 74.3943L85.762 77.5666L85.3981 90.1693L70.6572 92.7083ZM62.7902 88.419L70.699 92.4503L85.148 89.9616L85.5009 77.7397L76.3669 74.6374L62.5336 76.6591L62.7902 88.419Z" fill="#C8C5D0"/>
<path d="M70.4993 79.7909L70.4679 79.7789L62.3561 76.6679L62.4505 76.4386L70.5311 79.5375L85.614 77.5309L85.649 77.7754L70.4993 79.7909Z" fill="#C8C5D0"/>
<path d="M70.6433 79.6627L70.3873 79.6657L70.5502 92.5808L70.8062 92.5778L70.6433 79.6627Z" fill="#C8C5D0"/>
<path d="M68.7658 78.8917L66.55 78.0293L80.6269 75.8658L82.8425 76.7281L68.7658 78.8917Z" fill="#C8C5D0"/>
<path d="M62.454 80.0173L62.3528 80.244L65.7442 81.6525L65.8454 81.4257L62.454 80.0173Z" fill="#C8C5D0"/>
<path d="M63.9896 84.0909L63.8884 84.3176L67.2799 85.7261L67.3811 85.4993L63.9896 84.0909Z" fill="#6C63FF"/>
<path d="M76.3263 78.1905L76.6289 92.052L85.9321 96.7942L102.874 93.876L103.29 79.4672L92.5501 75.8194L76.3263 78.1905Z" fill="#6C63FF"/>
<path d="M85.9077 96.9439L76.4821 92.1393L76.1749 78.0677L92.5645 75.6724L92.5994 75.6843L103.442 79.3668L103.019 93.9965L85.9077 96.9439ZM76.7754 91.9647L85.9561 96.6444L102.729 93.7554L103.139 79.5677L92.5357 75.9664L76.4775 78.3133L76.7754 91.9647Z" fill="#4F44E2"/>
<path d="M85.7244 81.9489L85.6881 81.9349L76.2714 78.3237L76.3811 78.0573L85.7613 81.6546L103.27 79.3253L103.311 79.6092L85.7244 81.9489Z" fill="#4F44E2"/>
<path d="M85.8915 81.8L85.5944 81.8035L85.7834 96.7959L86.0806 96.7924L85.8915 81.8Z" fill="#4F44E2"/>
<path d="M83.8627 80.9116L81.1399 79.9041L97.4808 77.3925L100.204 78.4L83.8627 80.9116Z" fill="#4F44E2"/>
<path d="M76.385 82.2116L76.2675 82.4748L80.2044 84.1098L80.3219 83.8465L76.385 82.2116Z" fill="#4F44E2"/>
<path d="M78.1677 86.9404L78.0502 87.2037L81.9871 88.8387L82.1046 88.5754L78.1677 86.9404Z" fill="white"/>
<path d="M111.537 61.9383C111.735 61.8488 111.909 61.7187 112.049 61.557C112.189 61.3953 112.29 61.206 112.346 61.0024C112.402 60.7989 112.411 60.586 112.372 60.3788C112.333 60.1716 112.248 59.9751 112.122 59.8032L113.941 57.0183L112.456 55.5394L109.945 59.5069C109.659 59.7302 109.469 60.0468 109.409 60.3966C109.35 60.7464 109.425 61.1051 109.621 61.4048C109.818 61.7044 110.121 61.9243 110.474 62.0226C110.827 62.121 111.205 62.091 111.537 61.9385V61.9383Z" fill="#FFB6B6"/>
<path d="M120.37 44.4503L119.067 43.622C119.067 43.622 118.061 43.8395 116.992 45.8238C115.922 47.8081 111.609 56.6795 111.609 56.6795L113.382 58.4152L118.112 51.4555L120.37 44.4503Z" fill="#4F44E2"/>
</svg>
