<svg width="10" height="10" viewBox="0 0 10 10" fill="none" xmlns="http://www.w3.org/2000/svg">
<g id="ion:heart">
<path id="Vector" d="M5.00022 8.75C4.87477 8.74984 4.75227 8.71193 4.64865 8.64121C3.11369 7.59922 2.44904 6.88477 2.08244 6.43809C1.30119 5.48594 0.92717 4.5084 0.937717 3.4498C0.950022 2.23672 1.92326 1.25 3.10725 1.25C3.96818 1.25 4.56447 1.73496 4.91174 2.13887C4.92274 2.15153 4.93633 2.16169 4.9516 2.16865C4.96686 2.17561 4.98344 2.17921 5.00022 2.17921C5.01699 2.17921 5.03357 2.17561 5.04884 2.16865C5.0641 2.16169 5.07769 2.15153 5.08869 2.13887C5.43596 1.73457 6.03225 1.25 6.89318 1.25C8.07717 1.25 9.05041 2.23672 9.06272 3.45C9.07326 4.50879 8.69885 5.48633 7.91799 6.43828C7.55139 6.88496 6.88674 7.59941 5.35178 8.64141C5.24814 8.71206 5.12565 8.7499 5.00022 8.75Z" fill="white"/>
</g>
</svg>
