<svg width="40" height="40" viewBox="0 0 40 40" fill="none" xmlns="http://www.w3.org/2000/svg">
<path d="M34.7544 13.8C33.9515 11.8876 32.7833 10.1494 31.315 8.68217C29.8512 7.21242 28.1123 6.04387 26.1971 5.24289C24.2352 4.41836 22.1272 3.99571 19.9983 4.00003H19.9267C17.7615 4.01075 15.6678 4.43932 13.6958 5.28217C11.797 6.09137 10.0744 7.26199 8.62435 8.7286C7.17032 10.1925 6.01554 11.9247 5.22433 13.8286C4.40301 15.8085 3.98684 17.9323 4.00032 20.075C4.01105 22.5536 4.60516 25.0143 5.71465 27.2143V32.6429C5.71465 33.55 6.45191 34.2857 7.35739 34.2857H12.7903C15.0052 35.401 17.4494 35.9879 19.9303 36H20.0055C22.1457 36 24.2179 35.5857 26.1721 34.775C28.0775 33.9836 29.8099 32.8287 31.2721 31.375C32.7466 29.9143 33.9062 28.2072 34.7186 26.3036C35.5597 24.3322 35.9892 22.2357 35.9999 20.0714C36.0071 17.8964 35.5847 15.7857 34.7544 13.8ZM12.8547 21.7143C11.9098 21.7143 11.1404 20.9464 11.1404 20C11.1404 19.0536 11.9098 18.2857 12.8547 18.2857C13.7995 18.2857 14.569 19.0536 14.569 20C14.569 20.9464 13.8031 21.7143 12.8547 21.7143ZM19.9983 21.7143C19.0535 21.7143 18.284 20.9464 18.284 20C18.284 19.0536 19.0535 18.2857 19.9983 18.2857C20.9432 18.2857 21.7127 19.0536 21.7127 20C21.7127 20.9464 20.9432 21.7143 19.9983 21.7143ZM27.142 21.7143C26.1971 21.7143 25.4276 20.9464 25.4276 20C25.4276 19.0536 26.1971 18.2857 27.142 18.2857C28.0868 18.2857 28.8563 19.0536 28.8563 20C28.8563 20.9464 28.0868 21.7143 27.142 21.7143Z" fill="#4F44E2"/>
</svg>
