<svg width="40" height="40" viewBox="0 0 40 40" fill="none" xmlns="http://www.w3.org/2000/svg">
<g id="ic:baseline-saved-search">
<path id="Vector" d="M25.9798 23.4801C25.886 23.3862 25.7587 23.3333 25.6259 23.3333H24.7106C24.5862 23.3333 24.4666 23.2851 24.3771 23.1987C24.1936 23.0218 24.1812 22.733 24.3394 22.533C25.8455 20.6296 26.6684 18.2694 26.6667 15.8333C26.6667 13.6907 26.0313 11.5962 24.8409 9.81466C23.6505 8.03313 21.9586 6.64459 19.9791 5.82464C17.9995 5.00469 15.8213 4.79016 13.7199 5.20816C11.6184 5.62617 9.68808 6.65795 8.17301 8.17301C6.65795 9.68808 5.62617 11.6184 5.20816 13.7199C4.79016 15.8213 5.00469 17.9995 5.82464 19.9791C6.64459 21.9586 8.03313 23.6505 9.81466 24.8409C11.5962 26.0313 13.6907 26.6667 15.8333 26.6667C18.3546 26.6667 20.6845 25.7986 22.5329 24.3388C22.7329 24.1808 23.0217 24.1934 23.1986 24.377C23.285 24.4666 23.3333 24.5863 23.3333 24.7108V25.6259C23.3333 25.7587 23.3862 25.886 23.4801 25.9798L31.3131 33.7972C31.5084 33.9921 31.8248 33.9919 32.0199 33.7968L33.7968 32.0199C33.9919 31.8248 33.9921 31.5084 33.7972 31.3131L25.9798 23.4801ZM15.8333 23.3333C11.6833 23.3333 8.33334 19.9833 8.33334 15.8333C8.33334 11.6833 11.6833 8.33334 15.8333 8.33334C19.9833 8.33334 23.3333 11.6833 23.3333 15.8333C23.3333 19.9833 19.9833 23.3333 15.8333 23.3333Z" fill="#C8C5D0"/>
</g>
</svg>
