<svg width="1280" height="98" viewBox="0 0 1280 98" fill="none" xmlns="http://www.w3.org/2000/svg">
<g clip-path="url(#clip0_701_3168)">
<rect width="1280" height="98" fill="#4F44E2"/>
<path d="M-6.96 61.76C-9.97333 61.76 -12.4533 61.1467 -14.4 59.92C-16.3467 58.6667 -17.6933 56.9733 -18.44 54.84C-19.16 52.68 -19.28 50.24 -18.8 47.52C-18.3467 44.96 -17.36 42.6 -15.84 40.44C-14.32 38.2533 -12.36 36.5067 -9.96 35.2C-7.53333 33.8667 -4.82667 33.2 -1.84 33.2C1.14667 33.2 3.61334 33.84 5.56 35.12C7.50667 36.3733 8.85333 38.0933 9.6 40.28C10.3467 42.44 10.48 44.8533 10 47.52C9.52 50.2133 8.48 52.64 6.88 54.8C5.28 56.96 3.28 58.6667 0.880001 59.92C-1.52 61.1467 -4.13333 61.76 -6.96 61.76ZM-5.68 54.36C-4.48 54.36 -3.38667 54.0533 -2.4 53.44C-1.38667 52.8 -0.546666 51.96 0.120001 50.92C0.813335 49.88 1.28 48.7467 1.52 47.52C1.76 46.24 1.73333 45.08 1.44 44.04C1.17333 43 0.640001 42.1733 -0.159999 41.56C-0.933333 40.9467 -1.93333 40.64 -3.16 40.64C-4.38667 40.64 -5.50667 40.96 -6.52 41.6C-7.50667 42.2133 -8.33333 43.0533 -9 44.12C-9.66667 45.16 -10.1067 46.2933 -10.32 47.52C-10.5867 48.8 -10.5867 49.96 -10.32 51C-10.0267 52.04 -9.49333 52.8667 -8.72 53.48C-7.92 54.0667 -6.90667 54.36 -5.68 54.36ZM14.7069 33.2H35.4269L34.3869 39.76H22.3069L21.1869 46.84H31.9469L30.9069 53.36H20.1469L18.9469 61H10.3069L14.7069 33.2ZM37.6181 33.2H46.2181L41.8181 61H33.2181L37.6181 33.2Z" fill="white"/>
<path d="M71.04 61.76C68.0267 61.76 65.5467 61.1467 63.6 59.92C61.6533 58.6667 60.3067 56.9733 59.56 54.84C58.84 52.68 58.72 50.24 59.2 47.52C59.6533 44.96 60.64 42.6 62.16 40.44C63.68 38.2533 65.64 36.5067 68.04 35.2C70.4667 33.8667 73.1733 33.2 76.16 33.2C79.1467 33.2 81.6133 33.84 83.56 35.12C85.5067 36.3733 86.8533 38.0933 87.6 40.28C88.3467 42.44 88.48 44.8533 88 47.52C87.52 50.2133 86.48 52.64 84.88 54.8C83.28 56.96 81.28 58.6667 78.88 59.92C76.48 61.1467 73.8667 61.76 71.04 61.76ZM72.32 54.36C73.52 54.36 74.6133 54.0533 75.6 53.44C76.6133 52.8 77.4533 51.96 78.12 50.92C78.8133 49.88 79.28 48.7467 79.52 47.52C79.76 46.24 79.7333 45.08 79.44 44.04C79.1733 43 78.64 42.1733 77.84 41.56C77.0667 40.9467 76.0667 40.64 74.84 40.64C73.6133 40.64 72.4933 40.96 71.48 41.6C70.4933 42.2133 69.6667 43.0533 69 44.12C68.3333 45.16 67.8933 46.2933 67.68 47.52C67.4133 48.8 67.4133 49.96 67.68 51C67.9733 52.04 68.5067 52.8667 69.28 53.48C70.08 54.0667 71.0933 54.36 72.32 54.36ZM92.7069 33.2H113.427L112.387 39.76H100.307L99.1869 46.84H109.947L108.907 53.36H98.1469L96.9469 61H88.3069L92.7069 33.2ZM115.618 33.2H124.218L119.818 61H111.218L115.618 33.2Z" fill="#6960FC"/>
<path d="M149.04 61.76C146.027 61.76 143.547 61.1467 141.6 59.92C139.653 58.6667 138.307 56.9733 137.56 54.84C136.84 52.68 136.72 50.24 137.2 47.52C137.653 44.96 138.64 42.6 140.16 40.44C141.68 38.2533 143.64 36.5067 146.04 35.2C148.467 33.8667 151.173 33.2 154.16 33.2C157.147 33.2 159.613 33.84 161.56 35.12C163.507 36.3733 164.853 38.0933 165.6 40.28C166.347 42.44 166.48 44.8533 166 47.52C165.52 50.2133 164.48 52.64 162.88 54.8C161.28 56.96 159.28 58.6667 156.88 59.92C154.48 61.1467 151.867 61.76 149.04 61.76ZM150.32 54.36C151.52 54.36 152.613 54.0533 153.6 53.44C154.613 52.8 155.453 51.96 156.12 50.92C156.813 49.88 157.28 48.7467 157.52 47.52C157.76 46.24 157.733 45.08 157.44 44.04C157.173 43 156.64 42.1733 155.84 41.56C155.067 40.9467 154.067 40.64 152.84 40.64C151.613 40.64 150.493 40.96 149.48 41.6C148.493 42.2133 147.667 43.0533 147 44.12C146.333 45.16 145.893 46.2933 145.68 47.52C145.413 48.8 145.413 49.96 145.68 51C145.973 52.04 146.507 52.8667 147.28 53.48C148.08 54.0667 149.093 54.36 150.32 54.36ZM170.707 33.2H191.427L190.387 39.76H178.307L177.187 46.84H187.947L186.907 53.36H176.147L174.947 61H166.307L170.707 33.2ZM193.618 33.2H202.218L197.818 61H189.218L193.618 33.2Z" fill="white"/>
<path d="M227.04 61.76C224.027 61.76 221.547 61.1467 219.6 59.92C217.653 58.6667 216.307 56.9733 215.56 54.84C214.84 52.68 214.72 50.24 215.2 47.52C215.653 44.96 216.64 42.6 218.16 40.44C219.68 38.2533 221.64 36.5067 224.04 35.2C226.467 33.8667 229.173 33.2 232.16 33.2C235.147 33.2 237.613 33.84 239.56 35.12C241.507 36.3733 242.853 38.0933 243.6 40.28C244.347 42.44 244.48 44.8533 244 47.52C243.52 50.2133 242.48 52.64 240.88 54.8C239.28 56.96 237.28 58.6667 234.88 59.92C232.48 61.1467 229.867 61.76 227.04 61.76ZM228.32 54.36C229.52 54.36 230.613 54.0533 231.6 53.44C232.613 52.8 233.453 51.96 234.12 50.92C234.813 49.88 235.28 48.7467 235.52 47.52C235.76 46.24 235.733 45.08 235.44 44.04C235.173 43 234.64 42.1733 233.84 41.56C233.067 40.9467 232.067 40.64 230.84 40.64C229.613 40.64 228.493 40.96 227.48 41.6C226.493 42.2133 225.667 43.0533 225 44.12C224.333 45.16 223.893 46.2933 223.68 47.52C223.413 48.8 223.413 49.96 223.68 51C223.973 52.04 224.507 52.8667 225.28 53.48C226.08 54.0667 227.093 54.36 228.32 54.36ZM248.707 33.2H269.427L268.387 39.76H256.307L255.187 46.84H265.947L264.907 53.36H254.147L252.947 61H244.307L248.707 33.2ZM271.618 33.2H280.218L275.818 61H267.218L271.618 33.2Z" fill="#6960FC"/>
<path d="M305.04 61.76C302.027 61.76 299.547 61.1467 297.6 59.92C295.653 58.6667 294.307 56.9733 293.56 54.84C292.84 52.68 292.72 50.24 293.2 47.52C293.653 44.96 294.64 42.6 296.16 40.44C297.68 38.2533 299.64 36.5067 302.04 35.2C304.467 33.8667 307.173 33.2 310.16 33.2C313.147 33.2 315.613 33.84 317.56 35.12C319.507 36.3733 320.853 38.0933 321.6 40.28C322.347 42.44 322.48 44.8533 322 47.52C321.52 50.2133 320.48 52.64 318.88 54.8C317.28 56.96 315.28 58.6667 312.88 59.92C310.48 61.1467 307.867 61.76 305.04 61.76ZM306.32 54.36C307.52 54.36 308.613 54.0533 309.6 53.44C310.613 52.8 311.453 51.96 312.12 50.92C312.813 49.88 313.28 48.7467 313.52 47.52C313.76 46.24 313.733 45.08 313.44 44.04C313.173 43 312.64 42.1733 311.84 41.56C311.067 40.9467 310.067 40.64 308.84 40.64C307.613 40.64 306.493 40.96 305.48 41.6C304.493 42.2133 303.667 43.0533 303 44.12C302.333 45.16 301.893 46.2933 301.68 47.52C301.413 48.8 301.413 49.96 301.68 51C301.973 52.04 302.507 52.8667 303.28 53.48C304.08 54.0667 305.093 54.36 306.32 54.36ZM326.707 33.2H347.427L346.387 39.76H334.307L333.187 46.84H343.947L342.907 53.36H332.147L330.947 61H322.307L326.707 33.2ZM349.618 33.2H358.218L353.818 61H345.218L349.618 33.2Z" fill="white"/>
<path d="M383.04 61.76C380.027 61.76 377.547 61.1467 375.6 59.92C373.653 58.6667 372.307 56.9733 371.56 54.84C370.84 52.68 370.72 50.24 371.2 47.52C371.653 44.96 372.64 42.6 374.16 40.44C375.68 38.2533 377.64 36.5067 380.04 35.2C382.467 33.8667 385.173 33.2 388.16 33.2C391.147 33.2 393.613 33.84 395.56 35.12C397.507 36.3733 398.853 38.0933 399.6 40.28C400.347 42.44 400.48 44.8533 400 47.52C399.52 50.2133 398.48 52.64 396.88 54.8C395.28 56.96 393.28 58.6667 390.88 59.92C388.48 61.1467 385.867 61.76 383.04 61.76ZM384.32 54.36C385.52 54.36 386.613 54.0533 387.6 53.44C388.613 52.8 389.453 51.96 390.12 50.92C390.813 49.88 391.28 48.7467 391.52 47.52C391.76 46.24 391.733 45.08 391.44 44.04C391.173 43 390.64 42.1733 389.84 41.56C389.067 40.9467 388.067 40.64 386.84 40.64C385.613 40.64 384.493 40.96 383.48 41.6C382.493 42.2133 381.667 43.0533 381 44.12C380.333 45.16 379.893 46.2933 379.68 47.52C379.413 48.8 379.413 49.96 379.68 51C379.973 52.04 380.507 52.8667 381.28 53.48C382.08 54.0667 383.093 54.36 384.32 54.36ZM404.707 33.2H425.427L424.387 39.76H412.307L411.187 46.84H421.947L420.907 53.36H410.147L408.947 61H400.307L404.707 33.2ZM427.618 33.2H436.218L431.818 61H423.218L427.618 33.2Z" fill="#6960FC"/>
<path d="M461.04 61.76C458.027 61.76 455.547 61.1467 453.6 59.92C451.653 58.6667 450.307 56.9733 449.56 54.84C448.84 52.68 448.72 50.24 449.2 47.52C449.653 44.96 450.64 42.6 452.16 40.44C453.68 38.2533 455.64 36.5067 458.04 35.2C460.467 33.8667 463.173 33.2 466.16 33.2C469.147 33.2 471.613 33.84 473.56 35.12C475.507 36.3733 476.853 38.0933 477.6 40.28C478.347 42.44 478.48 44.8533 478 47.52C477.52 50.2133 476.48 52.64 474.88 54.8C473.28 56.96 471.28 58.6667 468.88 59.92C466.48 61.1467 463.867 61.76 461.04 61.76ZM462.32 54.36C463.52 54.36 464.613 54.0533 465.6 53.44C466.613 52.8 467.453 51.96 468.12 50.92C468.813 49.88 469.28 48.7467 469.52 47.52C469.76 46.24 469.733 45.08 469.44 44.04C469.173 43 468.64 42.1733 467.84 41.56C467.067 40.9467 466.067 40.64 464.84 40.64C463.613 40.64 462.493 40.96 461.48 41.6C460.493 42.2133 459.667 43.0533 459 44.12C458.333 45.16 457.893 46.2933 457.68 47.52C457.413 48.8 457.413 49.96 457.68 51C457.973 52.04 458.507 52.8667 459.28 53.48C460.08 54.0667 461.093 54.36 462.32 54.36ZM482.707 33.2H503.427L502.387 39.76H490.307L489.187 46.84H499.947L498.907 53.36H488.147L486.947 61H478.307L482.707 33.2ZM505.618 33.2H514.218L509.818 61H501.218L505.618 33.2Z" fill="white"/>
<path d="M539.04 61.76C536.027 61.76 533.547 61.1467 531.6 59.92C529.653 58.6667 528.307 56.9733 527.56 54.84C526.84 52.68 526.72 50.24 527.2 47.52C527.653 44.96 528.64 42.6 530.16 40.44C531.68 38.2533 533.64 36.5067 536.04 35.2C538.467 33.8667 541.173 33.2 544.16 33.2C547.147 33.2 549.613 33.84 551.56 35.12C553.507 36.3733 554.853 38.0933 555.6 40.28C556.347 42.44 556.48 44.8533 556 47.52C555.52 50.2133 554.48 52.64 552.88 54.8C551.28 56.96 549.28 58.6667 546.88 59.92C544.48 61.1467 541.867 61.76 539.04 61.76ZM540.32 54.36C541.52 54.36 542.613 54.0533 543.6 53.44C544.613 52.8 545.453 51.96 546.12 50.92C546.813 49.88 547.28 48.7467 547.52 47.52C547.76 46.24 547.733 45.08 547.44 44.04C547.173 43 546.64 42.1733 545.84 41.56C545.067 40.9467 544.067 40.64 542.84 40.64C541.613 40.64 540.493 40.96 539.48 41.6C538.493 42.2133 537.667 43.0533 537 44.12C536.333 45.16 535.893 46.2933 535.68 47.52C535.413 48.8 535.413 49.96 535.68 51C535.973 52.04 536.507 52.8667 537.28 53.48C538.08 54.0667 539.093 54.36 540.32 54.36ZM560.707 33.2H581.427L580.387 39.76H568.307L567.187 46.84H577.947L576.907 53.36H566.147L564.947 61H556.307L560.707 33.2ZM583.618 33.2H592.218L587.818 61H579.218L583.618 33.2Z" fill="#6960FC"/>
<path d="M617.04 61.76C614.027 61.76 611.547 61.1467 609.6 59.92C607.653 58.6667 606.307 56.9733 605.56 54.84C604.84 52.68 604.72 50.24 605.2 47.52C605.653 44.96 606.64 42.6 608.16 40.44C609.68 38.2533 611.64 36.5067 614.04 35.2C616.467 33.8667 619.173 33.2 622.16 33.2C625.147 33.2 627.613 33.84 629.56 35.12C631.507 36.3733 632.853 38.0933 633.6 40.28C634.347 42.44 634.48 44.8533 634 47.52C633.52 50.2133 632.48 52.64 630.88 54.8C629.28 56.96 627.28 58.6667 624.88 59.92C622.48 61.1467 619.867 61.76 617.04 61.76ZM618.32 54.36C619.52 54.36 620.613 54.0533 621.6 53.44C622.613 52.8 623.453 51.96 624.12 50.92C624.813 49.88 625.28 48.7467 625.52 47.52C625.76 46.24 625.733 45.08 625.44 44.04C625.173 43 624.64 42.1733 623.84 41.56C623.067 40.9467 622.067 40.64 620.84 40.64C619.613 40.64 618.493 40.96 617.48 41.6C616.493 42.2133 615.667 43.0533 615 44.12C614.333 45.16 613.893 46.2933 613.68 47.52C613.413 48.8 613.413 49.96 613.68 51C613.973 52.04 614.507 52.8667 615.28 53.48C616.08 54.0667 617.093 54.36 618.32 54.36ZM638.707 33.2H659.427L658.387 39.76H646.307L645.187 46.84H655.947L654.907 53.36H644.147L642.947 61H634.307L638.707 33.2ZM661.618 33.2H670.218L665.818 61H657.218L661.618 33.2Z" fill="white"/>
<path d="M695.04 61.76C692.027 61.76 689.547 61.1467 687.6 59.92C685.653 58.6667 684.307 56.9733 683.56 54.84C682.84 52.68 682.72 50.24 683.2 47.52C683.653 44.96 684.64 42.6 686.16 40.44C687.68 38.2533 689.64 36.5067 692.04 35.2C694.467 33.8667 697.173 33.2 700.16 33.2C703.147 33.2 705.613 33.84 707.56 35.12C709.507 36.3733 710.853 38.0933 711.6 40.28C712.347 42.44 712.48 44.8533 712 47.52C711.52 50.2133 710.48 52.64 708.88 54.8C707.28 56.96 705.28 58.6667 702.88 59.92C700.48 61.1467 697.867 61.76 695.04 61.76ZM696.32 54.36C697.52 54.36 698.613 54.0533 699.6 53.44C700.613 52.8 701.453 51.96 702.12 50.92C702.813 49.88 703.28 48.7467 703.52 47.52C703.76 46.24 703.733 45.08 703.44 44.04C703.173 43 702.64 42.1733 701.84 41.56C701.067 40.9467 700.067 40.64 698.84 40.64C697.613 40.64 696.493 40.96 695.48 41.6C694.493 42.2133 693.667 43.0533 693 44.12C692.333 45.16 691.893 46.2933 691.68 47.52C691.413 48.8 691.413 49.96 691.68 51C691.973 52.04 692.507 52.8667 693.28 53.48C694.08 54.0667 695.093 54.36 696.32 54.36ZM716.707 33.2H737.427L736.387 39.76H724.307L723.187 46.84H733.947L732.907 53.36H722.147L720.947 61H712.307L716.707 33.2ZM739.618 33.2H748.218L743.818 61H735.218L739.618 33.2Z" fill="#6960FC"/>
<path d="M773.04 61.76C770.027 61.76 767.547 61.1467 765.6 59.92C763.653 58.6667 762.307 56.9733 761.56 54.84C760.84 52.68 760.72 50.24 761.2 47.52C761.653 44.96 762.64 42.6 764.16 40.44C765.68 38.2533 767.64 36.5067 770.04 35.2C772.467 33.8667 775.173 33.2 778.16 33.2C781.147 33.2 783.613 33.84 785.56 35.12C787.507 36.3733 788.853 38.0933 789.6 40.28C790.347 42.44 790.48 44.8533 790 47.52C789.52 50.2133 788.48 52.64 786.88 54.8C785.28 56.96 783.28 58.6667 780.88 59.92C778.48 61.1467 775.867 61.76 773.04 61.76ZM774.32 54.36C775.52 54.36 776.613 54.0533 777.6 53.44C778.613 52.8 779.453 51.96 780.12 50.92C780.813 49.88 781.28 48.7467 781.52 47.52C781.76 46.24 781.733 45.08 781.44 44.04C781.173 43 780.64 42.1733 779.84 41.56C779.067 40.9467 778.067 40.64 776.84 40.64C775.613 40.64 774.493 40.96 773.48 41.6C772.493 42.2133 771.667 43.0533 771 44.12C770.333 45.16 769.893 46.2933 769.68 47.52C769.413 48.8 769.413 49.96 769.68 51C769.973 52.04 770.507 52.8667 771.28 53.48C772.08 54.0667 773.093 54.36 774.32 54.36ZM794.707 33.2H815.427L814.387 39.76H802.307L801.187 46.84H811.947L810.907 53.36H800.147L798.947 61H790.307L794.707 33.2ZM817.618 33.2H826.218L821.818 61H813.218L817.618 33.2Z" fill="white"/>
<path d="M851.04 61.76C848.027 61.76 845.547 61.1467 843.6 59.92C841.653 58.6667 840.307 56.9733 839.56 54.84C838.84 52.68 838.72 50.24 839.2 47.52C839.653 44.96 840.64 42.6 842.16 40.44C843.68 38.2533 845.64 36.5067 848.04 35.2C850.467 33.8667 853.173 33.2 856.16 33.2C859.147 33.2 861.613 33.84 863.56 35.12C865.507 36.3733 866.853 38.0933 867.6 40.28C868.347 42.44 868.48 44.8533 868 47.52C867.52 50.2133 866.48 52.64 864.88 54.8C863.28 56.96 861.28 58.6667 858.88 59.92C856.48 61.1467 853.867 61.76 851.04 61.76ZM852.32 54.36C853.52 54.36 854.613 54.0533 855.6 53.44C856.613 52.8 857.453 51.96 858.12 50.92C858.813 49.88 859.28 48.7467 859.52 47.52C859.76 46.24 859.733 45.08 859.44 44.04C859.173 43 858.64 42.1733 857.84 41.56C857.067 40.9467 856.067 40.64 854.84 40.64C853.613 40.64 852.493 40.96 851.48 41.6C850.493 42.2133 849.667 43.0533 849 44.12C848.333 45.16 847.893 46.2933 847.68 47.52C847.413 48.8 847.413 49.96 847.68 51C847.973 52.04 848.507 52.8667 849.28 53.48C850.08 54.0667 851.093 54.36 852.32 54.36ZM872.707 33.2H893.427L892.387 39.76H880.307L879.187 46.84H889.947L888.907 53.36H878.147L876.947 61H868.307L872.707 33.2ZM895.618 33.2H904.218L899.818 61H891.218L895.618 33.2Z" fill="#6960FC"/>
<path d="M929.04 61.76C926.027 61.76 923.547 61.1467 921.6 59.92C919.653 58.6667 918.307 56.9733 917.56 54.84C916.84 52.68 916.72 50.24 917.2 47.52C917.653 44.96 918.64 42.6 920.16 40.44C921.68 38.2533 923.64 36.5067 926.04 35.2C928.467 33.8667 931.173 33.2 934.16 33.2C937.147 33.2 939.613 33.84 941.56 35.12C943.507 36.3733 944.853 38.0933 945.6 40.28C946.347 42.44 946.48 44.8533 946 47.52C945.52 50.2133 944.48 52.64 942.88 54.8C941.28 56.96 939.28 58.6667 936.88 59.92C934.48 61.1467 931.867 61.76 929.04 61.76ZM930.32 54.36C931.52 54.36 932.613 54.0533 933.6 53.44C934.613 52.8 935.453 51.96 936.12 50.92C936.813 49.88 937.28 48.7467 937.52 47.52C937.76 46.24 937.733 45.08 937.44 44.04C937.173 43 936.64 42.1733 935.84 41.56C935.067 40.9467 934.067 40.64 932.84 40.64C931.613 40.64 930.493 40.96 929.48 41.6C928.493 42.2133 927.667 43.0533 927 44.12C926.333 45.16 925.893 46.2933 925.68 47.52C925.413 48.8 925.413 49.96 925.68 51C925.973 52.04 926.507 52.8667 927.28 53.48C928.08 54.0667 929.093 54.36 930.32 54.36ZM950.707 33.2H971.427L970.387 39.76H958.307L957.187 46.84H967.947L966.907 53.36H956.147L954.947 61H946.307L950.707 33.2ZM973.618 33.2H982.218L977.818 61H969.218L973.618 33.2Z" fill="white"/>
<path d="M1007.04 61.76C1004.03 61.76 1001.55 61.1467 999.6 59.92C997.653 58.6667 996.307 56.9733 995.56 54.84C994.84 52.68 994.72 50.24 995.2 47.52C995.653 44.96 996.64 42.6 998.16 40.44C999.68 38.2533 1001.64 36.5067 1004.04 35.2C1006.47 33.8667 1009.17 33.2 1012.16 33.2C1015.15 33.2 1017.61 33.84 1019.56 35.12C1021.51 36.3733 1022.85 38.0933 1023.6 40.28C1024.35 42.44 1024.48 44.8533 1024 47.52C1023.52 50.2133 1022.48 52.64 1020.88 54.8C1019.28 56.96 1017.28 58.6667 1014.88 59.92C1012.48 61.1467 1009.87 61.76 1007.04 61.76ZM1008.32 54.36C1009.52 54.36 1010.61 54.0533 1011.6 53.44C1012.61 52.8 1013.45 51.96 1014.12 50.92C1014.81 49.88 1015.28 48.7467 1015.52 47.52C1015.76 46.24 1015.73 45.08 1015.44 44.04C1015.17 43 1014.64 42.1733 1013.84 41.56C1013.07 40.9467 1012.07 40.64 1010.84 40.64C1009.61 40.64 1008.49 40.96 1007.48 41.6C1006.49 42.2133 1005.67 43.0533 1005 44.12C1004.33 45.16 1003.89 46.2933 1003.68 47.52C1003.41 48.8 1003.41 49.96 1003.68 51C1003.97 52.04 1004.51 52.8667 1005.28 53.48C1006.08 54.0667 1007.09 54.36 1008.32 54.36ZM1028.71 33.2H1049.43L1048.39 39.76H1036.31L1035.19 46.84H1045.95L1044.91 53.36H1034.15L1032.95 61H1024.31L1028.71 33.2ZM1051.62 33.2H1060.22L1055.82 61H1047.22L1051.62 33.2Z" fill="#6960FC"/>
<path d="M1085.04 61.76C1082.03 61.76 1079.55 61.1467 1077.6 59.92C1075.65 58.6667 1074.31 56.9733 1073.56 54.84C1072.84 52.68 1072.72 50.24 1073.2 47.52C1073.65 44.96 1074.64 42.6 1076.16 40.44C1077.68 38.2533 1079.64 36.5067 1082.04 35.2C1084.47 33.8667 1087.17 33.2 1090.16 33.2C1093.15 33.2 1095.61 33.84 1097.56 35.12C1099.51 36.3733 1100.85 38.0933 1101.6 40.28C1102.35 42.44 1102.48 44.8533 1102 47.52C1101.52 50.2133 1100.48 52.64 1098.88 54.8C1097.28 56.96 1095.28 58.6667 1092.88 59.92C1090.48 61.1467 1087.87 61.76 1085.04 61.76ZM1086.32 54.36C1087.52 54.36 1088.61 54.0533 1089.6 53.44C1090.61 52.8 1091.45 51.96 1092.12 50.92C1092.81 49.88 1093.28 48.7467 1093.52 47.52C1093.76 46.24 1093.73 45.08 1093.44 44.04C1093.17 43 1092.64 42.1733 1091.84 41.56C1091.07 40.9467 1090.07 40.64 1088.84 40.64C1087.61 40.64 1086.49 40.96 1085.48 41.6C1084.49 42.2133 1083.67 43.0533 1083 44.12C1082.33 45.16 1081.89 46.2933 1081.68 47.52C1081.41 48.8 1081.41 49.96 1081.68 51C1081.97 52.04 1082.51 52.8667 1083.28 53.48C1084.08 54.0667 1085.09 54.36 1086.32 54.36ZM1106.71 33.2H1127.43L1126.39 39.76H1114.31L1113.19 46.84H1123.95L1122.91 53.36H1112.15L1110.95 61H1102.31L1106.71 33.2ZM1129.62 33.2H1138.22L1133.82 61H1125.22L1129.62 33.2Z" fill="white"/>
<path d="M1163.04 61.76C1160.03 61.76 1157.55 61.1467 1155.6 59.92C1153.65 58.6667 1152.31 56.9733 1151.56 54.84C1150.84 52.68 1150.72 50.24 1151.2 47.52C1151.65 44.96 1152.64 42.6 1154.16 40.44C1155.68 38.2533 1157.64 36.5067 1160.04 35.2C1162.47 33.8667 1165.17 33.2 1168.16 33.2C1171.15 33.2 1173.61 33.84 1175.56 35.12C1177.51 36.3733 1178.85 38.0933 1179.6 40.28C1180.35 42.44 1180.48 44.8533 1180 47.52C1179.52 50.2133 1178.48 52.64 1176.88 54.8C1175.28 56.96 1173.28 58.6667 1170.88 59.92C1168.48 61.1467 1165.87 61.76 1163.04 61.76ZM1164.32 54.36C1165.52 54.36 1166.61 54.0533 1167.6 53.44C1168.61 52.8 1169.45 51.96 1170.12 50.92C1170.81 49.88 1171.28 48.7467 1171.52 47.52C1171.76 46.24 1171.73 45.08 1171.44 44.04C1171.17 43 1170.64 42.1733 1169.84 41.56C1169.07 40.9467 1168.07 40.64 1166.84 40.64C1165.61 40.64 1164.49 40.96 1163.48 41.6C1162.49 42.2133 1161.67 43.0533 1161 44.12C1160.33 45.16 1159.89 46.2933 1159.68 47.52C1159.41 48.8 1159.41 49.96 1159.68 51C1159.97 52.04 1160.51 52.8667 1161.28 53.48C1162.08 54.0667 1163.09 54.36 1164.32 54.36ZM1184.71 33.2H1205.43L1204.39 39.76H1192.31L1191.19 46.84H1201.95L1200.91 53.36H1190.15L1188.95 61H1180.31L1184.71 33.2ZM1207.62 33.2H1216.22L1211.82 61H1203.22L1207.62 33.2Z" fill="#6960FC"/>
<path d="M1241.04 61.76C1238.03 61.76 1235.55 61.1467 1233.6 59.92C1231.65 58.6667 1230.31 56.9733 1229.56 54.84C1228.84 52.68 1228.72 50.24 1229.2 47.52C1229.65 44.96 1230.64 42.6 1232.16 40.44C1233.68 38.2533 1235.64 36.5067 1238.04 35.2C1240.47 33.8667 1243.17 33.2 1246.16 33.2C1249.15 33.2 1251.61 33.84 1253.56 35.12C1255.51 36.3733 1256.85 38.0933 1257.6 40.28C1258.35 42.44 1258.48 44.8533 1258 47.52C1257.52 50.2133 1256.48 52.64 1254.88 54.8C1253.28 56.96 1251.28 58.6667 1248.88 59.92C1246.48 61.1467 1243.87 61.76 1241.04 61.76ZM1242.32 54.36C1243.52 54.36 1244.61 54.0533 1245.6 53.44C1246.61 52.8 1247.45 51.96 1248.12 50.92C1248.81 49.88 1249.28 48.7467 1249.52 47.52C1249.76 46.24 1249.73 45.08 1249.44 44.04C1249.17 43 1248.64 42.1733 1247.84 41.56C1247.07 40.9467 1246.07 40.64 1244.84 40.64C1243.61 40.64 1242.49 40.96 1241.48 41.6C1240.49 42.2133 1239.67 43.0533 1239 44.12C1238.33 45.16 1237.89 46.2933 1237.68 47.52C1237.41 48.8 1237.41 49.96 1237.68 51C1237.97 52.04 1238.51 52.8667 1239.28 53.48C1240.08 54.0667 1241.09 54.36 1242.32 54.36ZM1262.71 33.2H1283.43L1282.39 39.76H1270.31L1269.19 46.84H1279.95L1278.91 53.36H1268.15L1266.95 61H1258.31L1262.71 33.2ZM1285.62 33.2H1294.22L1289.82 61H1281.22L1285.62 33.2Z" fill="white"/>
</g>
<defs>
<clipPath id="clip0_701_3168">
<rect width="1280" height="98" fill="white"/>
</clipPath>
</defs>
</svg>
